<svg width="147" height="230" viewBox="0 0 147 230" fill="none" xmlns="http://www.w3.org/2000/svg">
<path d="M136.221 214.87C135.571 213.068 134.649 205.751 133.928 202.914C133.481 201.048 133.263 199.134 133.279 197.214C133.389 188.379 134.136 176.364 134.272 169.502C134.354 166.214 134.097 162.925 133.506 159.691C133.019 157.052 132.408 154.769 132.071 153.205C132.071 147.637 131.902 132.666 131.85 121.252C131.778 107.594 129.427 98.6141 127.868 91.904L89.8467 93.6987C89.7493 96.1795 87.3396 112.569 86.8915 121.186C86.1835 134.645 85.7938 148.191 86.242 155.442C86.6512 161.974 87.463 168.48 88.106 174.992C88.4048 177.961 88.6798 180.93 88.9309 183.899C89.1647 186.657 89.509 189.487 89.1842 192.259C88.8966 194.854 87.9025 197.317 86.3134 199.371C85.5258 200.392 84.616 201.31 83.605 202.103C80.1692 204.795 75.7526 205.956 72.3622 208.701C72.0007 208.956 71.7045 209.295 71.4984 209.69C71.358 210.03 71.3065 210.4 71.349 210.766C71.4479 211.518 71.7262 212.235 72.1597 212.854C72.5932 213.472 73.1688 213.974 73.8365 214.315C75.1816 214.984 76.6651 215.315 78.1622 215.279C82.312 215.355 86.3875 214.155 89.8532 211.835C91.1522 210.964 92.3408 209.941 93.6008 209.011C94.1659 208.595 94.7764 208.232 95.335 207.81C95.7875 207.509 96.2856 207.286 96.8094 207.15C98.0483 206.675 99.2623 206.136 100.447 205.534C101.044 205.268 101.609 204.932 102.129 204.531C102.842 203.929 103.336 203.102 103.532 202.182C103.636 201.637 103.668 201.08 103.629 200.526C103.607 199.819 103.515 199.116 103.356 198.428C103.09 197.28 102.59 196.211 102.233 195.129C101.875 194.047 101.746 193.077 101.499 192.041C102.798 184.559 104.253 176.067 104.961 170.221C105.501 166.032 105.501 161.789 104.961 157.6L108.065 131.208C109.858 140.445 114.736 160.727 114.736 160.727C116.177 167.84 120.282 184.994 122.172 196.772C122.296 199.787 123.263 204.029 123.302 211.01C123.302 213.649 123.302 217.548 123.263 219.178C123.192 221.606 122.965 223.572 123.718 227.188C124.472 230.804 128.479 229.603 129.154 228.508C129.154 228.508 133.922 226.614 135.084 223.935C136.533 220.682 136.851 216.664 136.221 214.87Z" fill="#FFA8A7"/>
<path d="M87.2033 92.4517C91.7498 97.9411 108.383 98.9836 116.548 98.0005C125.42 96.925 130.142 93.0059 130.142 93.0059C130.142 93.0059 130.791 97.09 131.824 103.134C132.473 106.69 132.356 111.051 132.532 120.084C132.616 124.399 132.973 145.961 132.973 145.961C128.947 150.315 115.983 151.054 111.54 148.508L108.429 133.708L106.331 148.481C106.331 148.481 103.915 150.698 94.3802 149.517C88.4958 148.785 85.2548 145.73 85.2548 145.73C85.2548 145.73 85.8003 105.344 87.2033 92.4517Z" fill="#37474F"/>
<path d="M91.8407 107.983C94.8219 114.667 105.103 116.25 105.103 116.25L108.422 133.708L106.325 148.481L107.091 130.937L102.986 119.193C102.986 119.193 92.6915 116.376 91.8407 107.983Z" fill="#263238"/>
<path d="M71.0243 212.936C70.8164 212.936 70.6411 215.147 71.8361 215.991C73.2261 216.974 77.201 218.466 82.2606 217.509C87.3202 216.552 89.9896 214.87 91.9251 213.134C93.8607 211.399 96.5821 208.938 98.8553 208.311C100.973 207.724 103.239 206.655 103.889 205.982C104.538 205.309 104.259 202.551 104.259 202.551L71.0243 212.936Z" fill="#263238"/>
<path d="M101.531 192.034C101.713 192.024 101.892 192.078 102.04 192.186C102.188 192.294 102.295 192.45 102.343 192.628C102.551 193.38 102.869 195.59 103.285 196.818C103.869 198.527 104.415 202.096 104.227 203.515C104.038 204.933 100.602 206.154 98.4201 207.117C95.8847 208.357 93.5412 209.966 91.464 211.894C89.1842 213.913 84.2675 216.176 80.9421 216.374C77.0061 216.611 72.4986 215.714 71.3684 214.065C69.9785 212.026 68.9003 209.618 74.5705 206.695C75.6421 206.141 79.3833 203.719 80.6563 202.855C84.0921 200.499 86.5018 198.388 87.8852 194.535C87.9973 194.057 88.2679 193.633 88.6516 193.334C89.0041 193.167 89.3966 193.108 89.7818 193.162C90.7625 193.228 94.6725 193.473 95.5818 193.822C96.3872 194.119 97.5303 194.482 97.5693 195.399C97.5693 195.729 97.5166 196.056 97.4134 196.369C97.3549 196.567 97.3159 196.824 97.5043 196.93C97.6927 197.035 97.894 196.89 98.0369 196.752C98.5742 196.167 99.063 195.538 99.4983 194.871C99.7481 194.523 100.038 194.206 100.362 193.928C100.695 193.727 101.016 193.506 101.323 193.268C101.655 192.912 101.544 192.476 101.531 192.034Z" fill="#455A64"/>
<path d="M91.464 211.894C92.4317 211.036 93.4644 210.205 94.5036 209.446C94.5036 209.446 87.8917 213.821 85.0079 212.224C83.1439 211.201 83.9038 209.75 83.9168 209.301C83.9298 208.852 77.4218 206.127 75.6746 206.055C75.207 206.332 74.8173 206.563 74.5705 206.715C68.9003 209.638 69.9785 212.046 71.3684 214.085C72.4986 215.727 75.7915 216.856 80.8771 216.513C84.2026 216.275 89.1842 213.913 91.464 211.894Z" fill="#37474F"/>
<path d="M84.313 207.968C80.7732 209.578 82.3645 210.113 83.3907 210.178C84.4169 210.244 90.3014 206.49 93.8477 203.475C97.5433 200.328 99.7906 197.009 101.161 195.848C101.674 195.419 102.226 194.891 102.707 194.403C102.564 193.664 102.441 192.984 102.343 192.628C102.295 192.45 102.188 192.294 102.04 192.186C101.892 192.078 101.713 192.024 101.531 192.034C101.44 192.661 101.427 192.938 101.09 193.294C100.864 193.52 100.62 193.728 100.362 193.915C100.038 194.193 99.7481 194.51 99.4983 194.858C99.063 195.525 98.5742 196.154 98.0369 196.738C95.1142 200.724 87.8528 206.365 84.313 207.968Z" fill="#37474F"/>
<path d="M83.6115 209.657C83.6947 209.656 83.775 209.626 83.8389 209.572C83.8722 209.541 83.8988 209.504 83.9171 209.463C83.9353 209.421 83.9448 209.376 83.9448 209.331C83.9448 209.285 83.9353 209.24 83.9171 209.199C83.8988 209.157 83.8722 209.12 83.8389 209.09C82.7347 207.981 77.7011 205.507 75.0511 205.962C75.0063 205.967 74.9628 205.981 74.9234 206.004C74.8841 206.026 74.8497 206.057 74.8223 206.093C74.795 206.129 74.7752 206.171 74.7643 206.216C74.7534 206.26 74.7515 206.306 74.7589 206.352C74.7674 206.397 74.7848 206.441 74.8101 206.48C74.8354 206.519 74.868 206.552 74.9061 206.578C74.9442 206.603 74.987 206.621 75.032 206.63C75.077 206.639 75.1232 206.638 75.168 206.629C77.6491 206.207 82.4359 208.674 83.3063 209.552C83.3457 209.592 83.3938 209.622 83.4468 209.641C83.4997 209.659 83.5561 209.665 83.6115 209.657Z" fill="#263238"/>
<path d="M86.6577 207.619C86.7416 207.615 86.8218 207.582 86.885 207.526C86.9173 207.496 86.9431 207.459 86.9607 207.418C86.9783 207.377 86.9874 207.333 86.9874 207.289C86.9874 207.244 86.9783 207.2 86.9607 207.159C86.9431 207.118 86.9173 207.081 86.885 207.051C85.7809 205.943 80.7473 203.468 78.0973 203.924C78.0524 203.928 78.009 203.943 77.9696 203.965C77.9303 203.987 77.8959 204.018 77.8685 204.054C77.8411 204.091 77.8214 204.132 77.8105 204.177C77.7995 204.221 77.7977 204.268 77.805 204.313C77.8143 204.358 77.8322 204.401 77.8578 204.439C77.8835 204.477 77.9162 204.509 77.9542 204.535C77.9923 204.56 78.0348 204.577 78.0794 204.585C78.124 204.594 78.1699 204.593 78.2142 204.583C80.6953 204.174 85.4821 206.635 86.3524 207.513C86.3919 207.553 86.44 207.584 86.4929 207.602C86.5459 207.62 86.6023 207.626 86.6577 207.619Z" fill="#263238"/>
<path d="M89.6973 205.679C89.7805 205.672 89.8597 205.64 89.9247 205.586C89.9571 205.555 89.983 205.518 90.0007 205.477C90.0183 205.435 90.0275 205.391 90.0275 205.346C90.0275 205.3 90.0183 205.256 90.0007 205.214C89.983 205.173 89.9571 205.136 89.9247 205.105C88.8205 203.996 83.7869 201.522 81.1369 201.977C81.0924 201.983 81.0495 201.998 81.0106 202.02C80.9717 202.043 80.9376 202.073 80.9104 202.11C80.8832 202.146 80.8634 202.187 80.8521 202.231C80.8408 202.275 80.8383 202.321 80.8447 202.367C80.8532 202.412 80.8706 202.456 80.8959 202.495C80.9212 202.533 80.9538 202.567 80.9919 202.592C81.03 202.618 81.0728 202.636 81.1178 202.645C81.1628 202.654 81.209 202.653 81.2538 202.644C83.7349 202.228 88.5217 204.689 89.3921 205.573C89.4326 205.612 89.4808 205.641 89.5335 205.66C89.5861 205.678 89.642 205.684 89.6973 205.679Z" fill="#263238"/>
<path d="M92.5162 203.501C92.5984 203.499 92.6769 203.466 92.737 203.409C92.7702 203.379 92.7967 203.343 92.8149 203.302C92.8331 203.261 92.8425 203.216 92.8425 203.171C92.8425 203.127 92.8331 203.082 92.8149 203.041C92.7967 203 92.7702 202.964 92.737 202.934C91.6393 201.819 86.5927 199.351 83.9558 199.8C83.9104 199.806 83.8666 199.82 83.8269 199.843C83.7872 199.867 83.7525 199.897 83.7247 199.934C83.6969 199.971 83.6765 200.013 83.6649 200.058C83.6533 200.103 83.6506 200.15 83.657 200.196C83.6772 200.287 83.7322 200.367 83.81 200.418C83.8879 200.469 83.9823 200.486 84.0727 200.466C86.5473 200.051 91.3406 202.518 92.2109 203.396C92.2504 203.436 92.2984 203.467 92.3514 203.485C92.4043 203.503 92.4607 203.509 92.5162 203.501Z" fill="#263238"/>
<path d="M95.2636 201.331C95.3422 201.326 95.4173 201.296 95.4779 201.245C95.5125 201.216 95.541 201.181 95.5615 201.141C95.5821 201.1 95.5943 201.056 95.5973 201.011C95.6003 200.966 95.5942 200.921 95.5792 200.878C95.5643 200.835 95.5409 200.796 95.5104 200.763C93.9906 199.186 88.7556 197.187 86.1056 197.642C86.0611 197.648 86.0181 197.663 85.9792 197.685C85.9404 197.708 85.9063 197.739 85.8791 197.775C85.8519 197.811 85.8321 197.852 85.8208 197.897C85.8095 197.941 85.807 197.987 85.8133 198.032C85.8336 198.124 85.8884 198.204 85.9659 198.256C86.0435 198.307 86.1379 198.327 86.229 198.309C88.6127 197.9 93.6268 199.826 94.9713 201.218C95.0095 201.257 95.0553 201.287 95.1057 201.306C95.156 201.326 95.2098 201.334 95.2636 201.331Z" fill="#263238"/>
<path d="M121.627 220.148C121.783 223.506 122.335 225.71 123.64 227.617C124.946 229.524 127.492 230.018 130.083 229.306C132.675 228.593 136.007 226.878 136.799 223.929C137.591 220.979 137.488 218.993 136.961 215.899L121.627 220.148Z" fill="#263238"/>
<path d="M133.344 195.03C134.402 195.03 133.662 199.734 134.182 204.267C134.747 209.09 136.344 211.016 136.851 214.969C137.429 219.488 137.124 221.534 135.266 224.377C133.409 227.221 126.992 230.249 123.926 226.469C121.432 223.394 121.393 219.831 121.718 215.252C122.087 211.402 122.239 207.534 122.172 203.666C122.029 200.268 121.257 197.2 122.172 196.772C122.237 197.273 122.296 197.9 122.361 198.388C122.413 198.764 122.828 200.941 123.075 200.592C123.322 200.242 123.134 199.747 123.114 199.305C123.092 199.104 123.112 198.901 123.174 198.708C123.236 198.516 123.337 198.339 123.471 198.19C124.005 197.828 124.603 197.575 125.231 197.444C126.277 197.207 128.141 196.95 129.206 196.785C129.739 196.712 130.272 196.666 130.798 196.646C131.248 196.612 131.701 196.645 132.142 196.745C132.262 196.768 132.375 196.819 132.473 196.893C132.571 196.968 132.651 197.064 132.707 197.174C132.758 197.343 132.774 197.52 132.753 197.695C132.746 198.007 132.785 198.319 132.87 198.619C132.909 198.751 133.006 198.909 133.162 198.87C133.218 198.848 133.265 198.809 133.297 198.758C133.328 198.707 133.342 198.646 133.337 198.586C133.331 198.065 133.344 195.03 133.344 195.03Z" fill="#455A64"/>
<path d="M136.637 213.656C136.728 214.315 137.286 218.624 135.916 219.475C134.454 220.399 133.727 217.021 133.727 217.021C133.727 217.021 130.356 216.275 125.381 218.446C125.621 219.106 124.809 221.501 123.465 221.085C122.12 220.669 121.698 215.708 121.692 215.642C121.399 220.009 121.503 223.454 123.926 226.442C126.992 230.223 133.415 227.195 135.266 224.351C137.117 221.507 137.429 219.462 136.851 214.942C136.793 214.487 136.715 214.065 136.637 213.656Z" fill="#37474F"/>
<path d="M133.331 217.324C133.331 218.967 135.169 218.32 135.279 216.004C135.39 213.689 134.078 208.239 134.169 204.24C134.24 198.751 134.389 195.056 133.331 195.003L133.272 197.346C133.272 197.755 133.318 198.23 133.305 198.586C133.266 201.938 132.863 208.437 133.129 211.485C133.318 213.425 133.385 215.375 133.331 217.324Z" fill="#37474F"/>
<path d="M125.952 218.367C125.533 216.481 125.233 214.571 125.056 212.646C124.744 209.624 123.38 203.521 122.718 200.242L122.198 196.778C121.438 197.022 121.549 199.701 121.822 201.067C122.094 202.433 122.387 203.897 122.685 205.85C123.523 209.717 123.238 215.411 123.79 217.647C124.342 219.884 126.271 219.963 125.952 218.367Z" fill="#37474F"/>
<path d="M125.27 218.584C125.322 218.575 125.372 218.56 125.42 218.538C127.983 217.352 130.83 216.944 133.616 217.364C133.717 217.383 133.821 217.366 133.91 217.315C133.999 217.264 134.067 217.183 134.104 217.087C134.12 217.043 134.126 216.996 134.122 216.95C134.118 216.903 134.104 216.858 134.081 216.818C134.058 216.778 134.027 216.743 133.989 216.716C133.951 216.69 133.909 216.672 133.863 216.664C130.882 216.196 127.831 216.634 125.095 217.924C125.051 217.942 125.012 217.969 124.979 218.003C124.946 218.037 124.921 218.078 124.904 218.123C124.888 218.167 124.88 218.215 124.883 218.263C124.886 218.31 124.898 218.357 124.92 218.4C124.956 218.46 125.007 218.51 125.069 218.542C125.131 218.575 125.201 218.589 125.27 218.584Z" fill="#263238"/>
<path d="M124.452 215.054L124.588 215.015C127.485 213.771 130.65 213.316 133.772 213.695C133.872 213.71 133.974 213.689 134.061 213.637C134.147 213.584 134.213 213.502 134.247 213.405C134.258 213.359 134.26 213.311 134.251 213.265C134.242 213.218 134.224 213.174 134.196 213.136C134.169 213.097 134.134 213.066 134.093 213.043C134.052 213.019 134.007 213.006 133.961 213.002C130.662 212.583 127.313 213.063 124.257 214.395C124.212 214.411 124.172 214.437 124.137 214.47C124.103 214.504 124.075 214.544 124.057 214.589C124.039 214.633 124.03 214.681 124.031 214.73C124.032 214.778 124.042 214.826 124.062 214.87C124.1 214.938 124.158 214.992 124.228 215.025C124.298 215.059 124.376 215.069 124.452 215.054Z" fill="#263238"/>
<path d="M133.578 210.33C133.651 210.32 133.72 210.291 133.779 210.246C133.838 210.201 133.885 210.141 133.915 210.073C133.932 210.029 133.94 209.982 133.937 209.936C133.934 209.889 133.921 209.843 133.898 209.802C133.876 209.761 133.845 209.726 133.807 209.698C133.77 209.671 133.727 209.652 133.681 209.644C128.94 208.463 124.192 210.851 123.991 210.964C123.947 210.982 123.907 211.01 123.874 211.044C123.842 211.079 123.816 211.12 123.8 211.166C123.783 211.211 123.776 211.259 123.779 211.307C123.782 211.355 123.794 211.402 123.816 211.445C123.874 211.528 123.961 211.586 124.06 211.608C124.158 211.63 124.261 211.614 124.348 211.564C124.394 211.564 129.005 209.228 133.441 210.33C133.486 210.34 133.533 210.34 133.578 210.33Z" fill="#263238"/>
<path d="M133.37 207.143C133.441 207.135 133.509 207.108 133.567 207.066C133.625 207.023 133.671 206.966 133.701 206.899C133.721 206.856 133.73 206.809 133.729 206.761C133.727 206.713 133.715 206.667 133.693 206.624C133.671 206.582 133.64 206.546 133.602 206.518C133.564 206.49 133.52 206.472 133.474 206.464C130.132 205.671 126.621 206.14 123.595 207.783C123.552 207.803 123.513 207.831 123.482 207.867C123.45 207.903 123.427 207.945 123.414 207.991C123.4 208.037 123.396 208.085 123.403 208.132C123.41 208.18 123.426 208.225 123.452 208.265C123.516 208.344 123.605 208.397 123.704 208.414C123.803 208.431 123.905 208.411 123.991 208.357C124.036 208.357 128.349 205.863 133.194 207.163C133.253 207.167 133.313 207.16 133.37 207.143Z" fill="#263238"/>
<path d="M133.116 203.567C133.188 203.559 133.256 203.532 133.314 203.49C133.372 203.447 133.418 203.39 133.448 203.323C133.467 203.28 133.477 203.234 133.476 203.186C133.475 203.139 133.463 203.093 133.442 203.051C133.421 203.009 133.39 202.972 133.353 202.944C133.316 202.916 133.273 202.896 133.227 202.888C128.349 201.509 123.484 204.168 123.277 204.28C123.233 204.299 123.194 204.327 123.162 204.362C123.13 204.397 123.106 204.439 123.091 204.485C123.076 204.53 123.071 204.579 123.076 204.626C123.081 204.674 123.096 204.72 123.121 204.762C123.18 204.843 123.268 204.9 123.367 204.919C123.465 204.939 123.567 204.92 123.653 204.867C123.705 204.867 128.408 202.281 132.941 203.548C132.997 203.567 133.057 203.574 133.116 203.567Z" fill="#263238"/>
<path d="M94.4127 39.6286C89.7428 40.1762 87.1968 41.0076 85.0989 45.5667C83.001 50.1259 78.9546 60.2207 77.87 62.6752C76.2912 66.1686 75.1626 69.8542 74.5121 73.6409C73.9275 77.7778 74.5121 89.2187 74.5121 89.2187L81.8124 97.5914L88.9569 70.7181L93.6463 57.8719L94.4127 39.6286Z" fill="#FFA8A7"/>
<path d="M97.7511 38.5202C92.6786 39.3779 87.8983 39.2195 85.0989 44.6826C82.2281 50.2843 78.0713 61.5074 78.0713 61.5074C78.0713 61.5074 79.0845 64.3049 83.657 66.4954C88.2295 68.6859 91.6524 68.0129 91.6524 68.0129L96.5561 55.015L97.7511 38.5202Z" fill="#37474F"/>
<path d="M128.986 39.18C128.986 39.18 119.685 37.6228 117.541 37.2468C108.104 36.1449 96.8418 38.6719 96.8418 38.6719C92.8864 39.8859 88.6386 44.2868 86.3589 52.6001C84.6962 58.6834 85.6509 64.648 86.807 66.7461C86.807 70.3024 86.7746 72.935 86.9175 79.3878C87.0604 85.8405 86.9889 88.4335 86.9175 93.7646C96.9457 104.262 123.562 103.47 130.512 94.0352C129.898 88.0185 129.785 81.9598 130.174 75.9238C130.928 67.7688 131.09 67.2871 132.032 58.9012C132.695 52.1709 131.646 45.3804 128.986 39.18Z" fill="#455A64"/>
<path opacity="0.5" d="M118.652 71.8859C116.665 73.2055 113.56 73.3836 111.696 73.2055C109.601 72.9655 107.568 72.3324 105.701 71.3383C105.104 71.0353 104.491 70.7688 103.863 70.5399C102.317 70.0517 101.265 70.5399 99.914 70.7708C97.7539 71.0675 95.5563 70.8875 93.4709 70.243C92.3562 70.0025 91.371 69.3455 90.7105 68.4022C93.1673 69.7961 96.0415 70.228 98.7903 69.6162C99.5277 69.503 100.24 69.2596 100.895 68.897C101.153 68.7157 101.372 68.482 101.538 68.2106C101.703 67.9392 101.811 67.6361 101.856 67.3201C101.982 66.6486 102.069 65.97 102.116 65.288C102.259 63.5329 102.85 60.8805 103.577 61.6723C103.642 61.7625 103.678 61.8707 103.681 61.9824C103.811 63.4801 103.259 66.2051 103.921 67.9733C104.584 69.7416 106.519 70.5531 108.624 71.1601C110.808 71.8275 113.086 72.124 115.366 72.0376C117.704 71.9189 119.932 71.0348 118.652 71.8859Z" fill="#37474F"/>
<path d="M120.094 7.32515C120.094 7.32515 122.335 7.50989 123.79 10.3272C124.517 11.7392 125.037 14.286 122.991 21.6625C122.207 24.5301 120.998 27.2599 119.405 29.7581C118.932 30.5712 118.169 31.1686 117.275 31.4274L117.444 25.773L117.671 21.8142C117.671 21.8142 114.489 18.9111 114.222 16.0806C113.885 12.4385 115.32 10.38 115.32 10.38L120.094 7.32515Z" fill="#37474F"/>
<path d="M120.873 7.50989C120.334 4.32309 116.294 0.509482 108.481 0.0410293C105.824 -0.157822 103.163 0.368641 100.774 1.56586C98.3852 2.76309 96.3548 4.58751 94.8933 6.85009C92.6461 10.5515 95.7832 13.7581 95.7832 13.7581L115.392 12.874L120.873 7.50989Z" fill="#37474F"/>
<path d="M122.633 27.462C119.678 28.8674 118.347 26.5449 118.347 26.5449V38.474C112.664 45.9626 97.1082 43.0925 103.317 37.4909L103.35 34.6208C102.494 34.5924 101.641 34.502 100.797 34.3503C98.1993 33.928 96.056 32.5688 95.2895 29.7317C94.8732 27.9174 94.6146 26.0695 94.5167 24.2092C94.3407 21.5291 94.6804 18.8399 95.5169 16.2917C96.043 14.8534 95.4389 12.9466 95.8481 11.1585C96.1534 9.79276 96.7574 8.30823 98.0175 7.69462C101.155 6.1771 104.038 8.4138 108.409 10.1359C110.215 10.8484 114.593 11.1783 115.749 10.6505C114.222 12.3066 114.216 17.5849 116.444 19.7424C116.725 20.296 117.103 20.7924 117.561 21.2072C118.516 22.0385 119.302 19.8876 120.107 19.0827C120.5 18.7601 120.96 18.5327 121.452 18.4176C121.944 18.3026 122.456 18.303 122.948 18.4187C123.44 18.5344 123.899 18.7625 124.292 19.0856C124.684 19.4087 124.999 19.8184 125.212 20.2835C125.524 20.9238 125.705 21.6219 125.743 22.3352C125.782 23.0486 125.677 23.7625 125.436 24.4337C125.195 25.1049 124.822 25.7194 124.341 26.2399C123.859 26.7605 123.278 27.1762 122.633 27.462Z" fill="#FFA8A7"/>
<path d="M103.337 34.6208C106.76 34.6208 109.793 34.2183 111.819 33.387C113.846 32.5556 115.638 29.8439 116.236 27.1519C116.236 29.3226 115.255 33.1626 112.19 34.7395C109.124 36.3165 105.558 36.3824 103.324 36.4154L103.337 34.6208Z" fill="#FFA8A7"/>
<path d="M115.112 17.5585C115.905 19.1486 114.976 24.1565 113.469 24.7503C111.962 25.3441 110.267 24.3544 106.974 23.4307C104.876 22.8105 102.726 22.3156 99.9335 23.0546C98.3942 23.4637 95.0168 24.6513 94.4582 23.8662C94.2958 26.5845 95.0622 33.1033 99.1865 34.4228C102.122 35.3861 108.377 35.5841 112.06 33.6971C115.742 31.8101 116.437 29.6327 117.126 26.6571C117.639 24.5729 118.275 22.5217 119.029 20.5144L115.112 17.5585Z" fill="#37474F"/>
<path d="M100.167 26.5977C100.195 26.4618 100.23 26.3275 100.271 26.1952C100.402 25.7035 100.647 25.2509 100.986 24.8757C101.384 24.4956 101.883 24.2412 102.421 24.1433C103.908 23.8266 105.48 23.8992 106.636 25.0076C107.014 25.3735 107.311 25.8169 107.507 26.3084C107.703 26.7999 107.793 27.3281 107.773 27.8579C107.773 28.5177 107.26 28.7486 106.649 28.9202C106.311 29.0451 105.945 29.0742 105.592 29.0045C105.238 28.9348 104.91 28.7688 104.642 28.5243C104.471 28.3453 104.244 28.2322 104 28.2046C103.756 28.1769 103.51 28.2363 103.304 28.3726C103.099 28.5503 102.882 28.7135 102.655 28.8608C102.337 28.972 101.994 28.9881 101.668 28.907C101.365 28.8782 101.07 28.7932 100.797 28.6563C100.609 28.5341 100.449 28.3705 100.331 28.1775C100.213 27.9845 100.14 27.7671 100.115 27.5412C100.076 27.2261 100.093 26.9063 100.167 26.5977Z" fill="#FFA8A7"/>
<path d="M105.649 24.7041L102.402 25.7532C102.465 25.9733 102.57 26.1785 102.713 26.3566C102.855 26.5347 103.031 26.6822 103.23 26.7903C103.429 26.8985 103.647 26.9652 103.872 26.9865C104.096 27.0078 104.323 26.9833 104.538 26.9144C104.97 26.765 105.328 26.4507 105.535 26.038C105.742 25.6254 105.783 25.1469 105.649 24.7041Z" fill="#B16668"/>
<path d="M105.285 25.2847C105.423 25.2686 105.563 25.2686 105.701 25.2847C105.698 25.655 105.581 26.0149 105.365 26.3134C105.149 26.6119 104.846 26.8337 104.499 26.9474C104.323 27.0039 104.139 27.0284 103.954 27.02C103.909 26.6115 104.024 26.2016 104.272 25.8775C104.521 25.5534 104.885 25.3407 105.285 25.2847Z" fill="#FFA8A7"/>
<path d="M107.234 13.8439L110.118 15.0777C110.274 14.6826 110.271 14.2412 110.111 13.8479C109.951 13.4546 109.645 13.1406 109.26 12.973C109.071 12.8927 108.868 12.8515 108.663 12.852C108.458 12.8524 108.256 12.8944 108.067 12.9756C107.878 13.0567 107.707 13.1753 107.564 13.3244C107.421 13.4735 107.309 13.6501 107.234 13.8439Z" fill="#37474F"/>
<path d="M96.582 14.3189L99.5243 13.1775C99.4564 12.9813 99.3503 12.8011 99.2123 12.6477C99.0742 12.4942 98.9071 12.3706 98.7209 12.2843C98.5347 12.1981 98.3332 12.1509 98.1286 12.1457C97.9241 12.1404 97.7205 12.1772 97.5303 12.2538C97.139 12.4053 96.8211 12.7056 96.6441 13.0911C96.4671 13.4766 96.4448 13.917 96.582 14.3189Z" fill="#37474F"/>
<path d="M109.13 17.1759C109.13 17.4401 109.051 17.6982 108.905 17.9166C108.758 18.1349 108.551 18.3036 108.309 18.4007C108.067 18.4979 107.802 18.5189 107.548 18.4613C107.294 18.4036 107.063 18.2698 106.885 18.0773C106.707 17.8847 106.59 17.6423 106.549 17.3813C106.508 17.1204 106.545 16.8529 106.655 16.6136C106.765 16.3743 106.944 16.1742 107.168 16.0392C107.391 15.9041 107.65 15.8404 107.909 15.8563C108.075 15.8605 108.238 15.8982 108.39 15.967C108.541 16.0358 108.677 16.1344 108.791 16.2571C108.905 16.3798 108.993 16.5243 109.051 16.682C109.11 16.8397 109.136 17.0075 109.13 17.1759Z" fill="#263238"/>
<path d="M99.914 16.615C99.9136 16.879 99.8352 17.1368 99.6891 17.3551C99.543 17.5734 99.3357 17.7422 99.0942 17.8396C98.8526 17.9369 98.5879 17.9585 98.3341 17.9014C98.0804 17.8443 97.8493 17.7113 97.6708 17.5194C97.4924 17.3275 97.3746 17.0857 97.3329 16.8251C97.2911 16.5645 97.3272 16.2972 97.4366 16.0577C97.546 15.8183 97.7235 15.6176 97.9463 15.4817C98.1691 15.3458 98.4269 15.2809 98.6864 15.2955C99.0212 15.3058 99.3383 15.4505 99.5684 15.6978C99.7985 15.9451 99.9227 16.2749 99.914 16.615Z" fill="#263238"/>
<path d="M104.473 14.1078L103.382 22.1969L99.0891 20.587C100.382 18.0437 102.222 15.8291 104.473 14.1078Z" fill="#FFA8A7"/>
<path d="M101.947 58.6504C101.471 59.0943 101.106 59.646 100.88 60.2605C100.654 60.8751 100.575 61.5352 100.648 62.1869C100.664 62.4183 100.739 62.6414 100.867 62.8337C100.995 63.026 101.17 63.1807 101.375 63.2822L103.415 64.0475L105.194 59.0397L103.181 58.2876C102.962 58.2342 102.733 58.2396 102.517 58.3032C102.3 58.3668 102.104 58.4865 101.947 58.6504Z" fill="#004AAD"/>
<path d="M105.935 60.1482C105.734 58.9672 104.837 58.6307 103.928 59.4026C103.453 59.8451 103.087 60.3956 102.861 61.0091C102.635 61.6227 102.556 62.2817 102.629 62.9325L103.363 67.2146L103.83 66.8187C103.932 66.7233 104.01 66.6048 104.057 66.4728C104.105 66.3409 104.12 66.1993 104.103 66.0599L103.766 64.0806C104.089 64.0438 104.393 63.9054 104.636 63.6847C105.111 63.2408 105.477 62.6892 105.703 62.0746C105.928 61.46 106.008 60.7999 105.935 60.1482Z" fill="#004AAD"/>
<path opacity="0.2" d="M105.935 60.1482C105.734 58.9672 104.837 58.6307 103.928 59.4026C103.453 59.8451 103.087 60.3956 102.861 61.0091C102.635 61.6227 102.556 62.2817 102.629 62.9325L103.363 67.2146L103.83 66.8187C103.932 66.7233 104.01 66.6048 104.057 66.4728C104.105 66.3409 104.12 66.1993 104.103 66.0599L103.766 64.0806C104.089 64.0438 104.393 63.9054 104.636 63.6847C105.111 63.2408 105.477 62.6892 105.703 62.0746C105.928 61.46 106.008 60.7999 105.935 60.1482Z" fill="black"/>
<path d="M101.401 66.4624L103.408 67.2146L102.674 62.9325L100.667 62.1869L101.401 66.4624Z" fill="#004AAD"/>
<path d="M101.051 63.0447L102.415 63.5527L102.291 62.8269L100.921 62.3123L101.051 63.0447Z" fill="#37474F"/>
<path d="M102.415 63.5527L101.051 63.0447L101.226 62.8929L102.376 63.3152L102.415 63.5527Z" fill="#263238"/>
<path d="M101.232 62.8929L101.148 62.3981L100.921 62.3123L101.051 63.0447L101.232 62.8929Z" fill="black"/>
<path d="M118.327 36.4484V37.3985C118.777 39.0657 118.777 40.825 118.327 42.4921C117.905 44.0584 117.248 45.5494 116.379 46.9127C114.538 50.1065 112.052 52.8678 109.085 55.015C107.397 56.2663 105.596 57.3532 103.707 58.2612C103.246 58.4855 103.616 59.0925 104.025 58.921C110.877 55.622 117.204 49.8422 119.172 42.1358C119.678 40.1564 119.574 38.1771 118.327 36.4484Z" fill="#E0E0E0"/>
<path d="M103.986 58.6439C103.448 57.3794 103.003 56.076 102.655 54.7445C102.317 53.3721 102.044 51.9734 101.817 50.5746C101.322 47.8274 101.28 45.0157 101.694 42.2546C101.892 40.5678 102.444 38.9436 103.311 37.4909V36.653C102.762 37.4173 102.282 38.2299 101.875 39.081C101.637 39.7002 101.439 40.335 101.284 40.9812C100.951 42.3352 100.768 43.7228 100.739 45.1181C100.737 48.1664 101.111 51.2029 101.849 54.1573C102.15 55.7625 102.67 57.3171 103.395 58.7758C103.564 59.0463 104.136 59.0331 103.986 58.6439Z" fill="#E0E0E0"/>
<path d="M67.8547 67.2146L99.193 75.1981L110.761 110.424L110.144 111.203L80.2991 103.022L67.2376 67.9931L67.8547 67.2146Z" fill="#004AAD"/>
<path opacity="0.35" d="M98.576 75.9766L110.144 111.203L110.761 110.424L99.193 75.1981L98.576 75.9766Z" fill="black"/>
<path opacity="0.25" d="M67.2376 67.9931L98.576 75.9766L110.144 111.203L80.2991 103.022L67.2376 67.9931Z" fill="black"/>
<g opacity="0.1">
<path d="M77.0516 74.5515C77.0516 74.5515 76.8892 74.0236 76.6944 73.3704C76.4995 72.7172 78.3051 72.9086 80.7473 73.7993L86.3784 74.9671C88.8141 75.8579 91.0938 76.4781 91.2951 77.1379L91.6524 78.3189L77.0516 74.5515Z" fill="black"/>
</g>
<path d="M74.7589 69.2599C74.6355 68.8509 75.3369 68.8707 76.3242 69.0422L78.1298 69.4843C78.1298 69.4843 77.2595 67.7952 81.5007 68.5474C86.1706 69.3721 86.4694 71.6286 86.4694 71.6286C87.2101 71.8753 87.9649 72.0758 88.7296 72.229C90.2819 72.5853 90.4768 72.8888 90.6392 73.2781L90.9314 74.0236L74.9602 69.9593C74.9602 69.9593 74.8823 69.669 74.7589 69.2599Z" fill="#37474F"/>
<path d="M76.5905 71.4306C78.0843 71.9453 78.7078 72.2092 79.0131 73.2187C79.3638 74.3733 79.4548 74.855 79.4548 74.855L87.8073 77.3094C87.8073 77.3094 87.2163 75.6203 87.0539 75.0529C86.8915 74.4855 87.9632 74.3931 89.4181 74.9077L88.9569 73.4958L75.9994 69.9659L76.5905 71.4306Z" fill="#37474F"/>
<path d="M76.6359 74.6108C76.6359 74.6108 76.4735 74.083 76.2787 73.4232C76.0838 72.7634 77.8959 72.968 80.3316 73.8587L85.9627 75.0265C88.3984 75.9172 90.6781 76.5374 90.8795 77.1906L91.2367 78.3783L76.6359 74.6108Z" fill="#37474F"/>
<path d="M139.404 90.3469C143.515 88.1828 146.548 85.8999 146.892 83.716C147.542 79.3548 145.152 67.2212 142.476 56.5193C141.177 51.3663 141.177 46.1606 137.858 42.855C134.753 39.7738 131.791 39.9057 129.109 39.5164C123.192 47.8826 127.284 62.3849 127.284 62.3849L131.473 78.1077" fill="#FFA8A7"/>
<path d="M104.785 92.2273C103.293 92.5813 101.77 92.7868 100.239 92.8409C99.5892 92.8409 97.0627 91.6731 95.0427 91.1452C93.0228 90.6174 91.6783 91.838 92.737 92.6562C93.2987 93.1136 93.896 93.5241 94.5231 93.8834C93.6658 94.7411 93.0747 95.5329 94.8024 96.9844C94.4647 97.8949 94.7375 98.7197 95.5428 99.5114C97.2651 101.021 99.2117 102.243 101.31 103.134C102.441 103.563 108.293 103.173 108.78 102.909C110.871 101.775 113.008 100.811 113.898 100.435C115.437 99.7753 118.223 98.3106 120.009 97.7234C121.796 97.1362 135.533 93.1576 142.307 88.6644C144.82 86.8236 148.321 82.6735 145.976 79.8562C142.177 76.8871 135.955 75.0595 131.447 78.1011C126.94 81.1428 118.652 86.685 116.327 87.7341C114.002 88.7832 110.657 88.7568 109.949 88.7568C107.89 88.7471 105.834 88.8971 103.798 89.2055L104.785 92.2273Z" fill="#FFA8A7"/>
<path d="M94.4971 93.8834C95.3285 94.3519 96.1339 94.8599 96.9328 95.3745C97.3354 95.6253 97.7316 95.8958 98.1278 96.1597C98.2838 96.294 98.4764 96.3768 98.6799 96.3972C98.9007 96.4302 99.1346 96.45 99.3684 96.4698C101.245 96.6018 103.148 96.6018 105.045 96.7469C104.097 96.8459 103.148 96.8987 102.2 96.9251C101.252 96.9514 100.291 96.9251 99.3359 96.8921C99.0956 96.8921 98.8553 96.8459 98.6085 96.8063C98.4699 96.7838 98.3346 96.744 98.2058 96.6875C98.0884 96.6265 97.9774 96.5536 97.8745 96.4698C97.4978 96.1927 97.1081 95.9222 96.7379 95.6319C95.978 95.071 95.2246 94.497 94.4971 93.8834Z" fill="#FFA8A7"/>
<path d="M94.7764 96.9844C95.5623 97.5188 96.3482 98.0401 97.1536 98.5349C97.5628 98.7791 97.959 99.0298 98.3746 99.2607C98.576 99.3729 98.7838 99.4982 98.9852 99.5972C99.1952 99.6705 99.4134 99.717 99.6347 99.7357C100.557 99.8545 101.512 99.8743 102.46 99.9205C103.408 99.9667 104.357 99.9931 105.305 100.099C103.401 100.288 101.484 100.306 99.5762 100.151C99.3168 100.128 99.0627 100.063 98.8228 99.9601C98.602 99.8479 98.4006 99.7292 98.1733 99.6038C97.7706 99.3465 97.3679 99.0891 96.9782 98.8054C96.1988 98.2575 95.4626 97.6487 94.7764 96.9844Z" fill="#FFA8A7"/>
<path d="M97.0562 100.745C97.7057 101.003 98.3552 101.28 98.9722 101.511C99.6052 101.732 100.258 101.891 100.921 101.986C101.597 102.046 102.276 102.057 102.954 102.019C103.649 102 104.344 102.044 105.032 102.151L102.973 102.382C102.274 102.471 101.567 102.471 100.869 102.382C99.4893 102.147 98.1835 101.586 97.0562 100.745Z" fill="#FFA8A7"/>
<path d="M128.986 39.18C132.272 39.3911 133.974 39.5956 137.137 41.8191C140.3 44.0426 141.17 48.5622 141.683 51.4455C142.196 54.3288 144.281 62.563 144.84 65.7036C142.404 70.5927 135.831 71.6418 129.154 70.85C127.654 65.3935 125.589 57.4166 125.381 52.8839C125.173 48.3511 125.751 43.2575 128.986 39.18Z" fill="#37474F"/>
<path d="M73.9794 89.6211C73.0312 88.3543 73.1156 88.1828 73.6027 87.523C73.9723 86.9954 74.4587 86.5635 75.0228 86.2621C75.587 85.9606 76.2129 85.7981 76.8502 85.7877C77.9804 85.7877 79.1235 85.7877 79.7145 86.0451C80.3056 86.3024 79.825 87.5626 78.3571 87.9189C76.0449 88.4797 76.0708 89.1065 76.0708 89.1065C77.0561 88.8621 78.0534 88.6705 79.0585 88.5325C80.207 88.5923 81.3492 88.7423 82.4749 88.9811C83.4557 89.1197 83.6765 90.3733 82.0203 90.8351L83.8194 91.0925C85.0794 91.264 85.5211 91.9238 84.5468 92.7156C84.231 92.9908 83.8325 93.1489 83.4167 93.1642C83.4167 93.1642 84.7547 93.1642 84.7936 93.5799C84.8911 94.8467 84.0727 95.1964 81.3838 96.0211C80.7934 96.191 80.2245 96.4301 79.6886 96.7337C79.1826 97.0957 78.6296 97.3843 78.0453 97.5914C77.5467 97.7408 77.0109 97.6937 76.545 97.4595C76.2771 97.3187 76.0658 97.0877 75.9473 96.806C75.8288 96.5243 75.8105 96.2095 75.8955 95.9156C75.8955 95.9156 74.4211 95.9749 74.3172 95.071C74.2767 94.3954 74.3854 93.7191 74.6355 93.0916C74.3705 92.95 74.1509 92.7344 74.0024 92.4702C73.854 92.206 73.7829 91.9043 73.7976 91.6005C73.7862 91.0237 73.9645 90.4595 74.3042 89.9972L73.9794 89.6211Z" fill="#FFA8A7"/>
<path d="M82.0398 90.8351C81.5023 90.7327 80.9563 90.6841 80.4095 90.69C79.8616 90.7774 79.3309 90.9534 78.8377 91.2112C77.8586 91.6554 76.916 92.1783 76.0189 92.7749C77.0527 92.485 78.0608 92.1076 79.0326 91.6467C79.4899 91.4046 79.9682 91.2058 80.4615 91.0529C80.9486 90.9671 81.5137 90.9473 82.0398 90.8351Z" fill="#FFA8A7"/>
<path d="M83.4362 93.1642C82.856 93.0189 82.2497 93.0189 81.6695 93.1642C81.0988 93.3011 80.5404 93.4865 80.0003 93.7185C78.9326 94.1737 77.914 94.7398 76.9607 95.4075C78.064 95.0476 79.148 94.6292 80.2082 94.1539C81.2159 93.6273 82.3098 93.2919 83.4362 93.1642Z" fill="#FFA8A7"/>
<path d="M20.737 97.8495L23.1519 83.3825C19.8593 84.0154 16.7457 85.8263 14.1233 88.6337L1.4821 102.287L10.1793 105.971L20.737 97.8495Z" fill="#FFA8A7"/>
<path d="M26.6435 162.903L28.4084 168.373C28.9029 169.914 29.7438 171.197 30.808 172.033C31.8722 172.87 33.1035 173.215 34.3213 173.02L49.2308 170.683C50.4837 170.489 51.7521 170.616 52.9709 171.06L56.2332 172.25V161.748L55.3412 162.106C53.6251 162.807 51.8042 162.867 50.0655 162.281L44.6305 160.443C42.0581 159.575 39.3637 159.666 36.8253 160.706L36.271 154.51L26.6435 162.903Z" fill="#F28F8F"/>
<path d="M67.1605 176.731C67.1042 174.195 66.3292 171.789 65.0005 170.027C64.0193 168.749 62.7832 167.891 61.8529 166.526C60.7761 164.942 60.3301 163.2 59.4126 161.406C59.2509 161.103 59.03 160.87 58.7755 160.732C58.6823 160.719 58.5883 160.719 58.4951 160.732C58.1702 160.768 57.8538 160.893 57.5649 161.1C57.9357 161.187 58.2671 161.47 58.4887 161.888C59.4126 163.638 60.0625 165.738 61.1457 167.288C62.0696 168.609 63.3057 169.449 64.2869 170.701C65.6098 172.404 66.3867 174.758 66.4469 177.247C66.4978 179.707 65.8416 183.951 64.5354 183.951C64.9475 184.089 65.3825 183.997 65.746 183.697C66.8801 182.148 67.1924 178.56 67.1605 176.731Z" fill="#EBEBEB"/>
<path d="M59.4126 161.406C60.3301 163.2 60.7761 164.907 61.8529 166.526C62.7832 167.891 64.0193 168.749 65.0005 170.027C66.3291 171.789 67.1042 174.195 67.1605 176.731C67.1605 178.56 66.8801 182.148 65.7906 183.671C67.1796 182.525 67.5619 178.473 67.5173 176.495C67.456 174.008 66.6819 171.655 65.3637 169.948C64.3824 168.697 63.14 167.856 62.2161 166.526C61.1329 164.977 60.6933 163.27 59.7694 161.529C59.6544 161.313 59.5087 161.131 59.3412 160.994C59.1737 160.857 58.9877 160.768 58.7946 160.732C59.0421 160.874 59.256 161.107 59.4126 161.406Z" fill="#455A64"/>
<path d="M55.0099 161.835C54.6937 162.026 54.3458 162.095 54.0031 162.036C54.0031 162.036 52.9964 161.896 52.6651 161.809C52.028 161.642 51.9642 162.631 51.9642 162.631C52.3433 162.687 52.7256 162.687 53.1048 162.631C53.191 162.813 53.3042 162.968 53.4371 163.086C53.5699 163.204 53.7194 163.281 53.8757 163.314C54.195 163.4 54.5068 163.532 54.806 163.708C54.9542 163.801 55.0791 163.952 55.1653 164.142C55.2514 164.331 55.2949 164.552 55.2902 164.776C55.2329 165.266 54.8824 165.555 54.653 165.966C54.5464 166.205 54.4858 166.478 54.4769 166.758C54.4679 167.038 54.511 167.317 54.6021 167.568C54.3977 167.447 54.1693 167.427 53.9555 167.512C53.7418 167.596 53.5559 167.78 53.4297 168.031C53.1902 168.561 53.0461 169.161 53.0092 169.782C52.9437 170.195 52.9222 170.62 52.9455 171.042C52.9562 171.255 52.9984 171.463 53.0697 171.652C53.1409 171.842 53.2395 172.009 53.3596 172.145C53.4816 172.275 53.6318 172.346 53.7865 172.346C53.9412 172.346 54.0914 172.275 54.2134 172.145C55.029 173.965 58.7563 174.657 60.6232 178.096C62.4901 181.536 62.8979 183.978 64.5545 183.978C65.8288 183.978 66.466 179.733 66.466 177.273C66.4058 174.784 65.6289 172.43 64.306 170.727C63.3248 169.475 62.0887 168.635 61.1648 167.314C60.0816 165.765 59.4317 163.664 58.5079 161.914C58.2862 161.496 57.9548 161.214 57.584 161.126C57.4718 161.108 57.3585 161.108 57.2463 161.126C56.4751 161.168 55.7164 161.408 55.0099 161.835Z" fill="#004AAD"/>
<path d="M64.0702 183.339L64.4908 181.754C64.5191 181.652 64.5673 181.562 64.6302 181.494C64.6931 181.426 64.7682 181.383 64.8476 181.369C66.1219 181.159 66.5233 180.897 67.0776 180.092C66.9981 181.074 66.7679 182.023 66.4022 182.875C66.188 183.386 65.8378 183.762 65.4254 183.926C65.013 184.089 64.5706 184.026 64.1913 183.75C64.1368 183.715 64.0939 183.654 64.0714 183.577C64.0489 183.501 64.0485 183.415 64.0702 183.339Z" fill="#455A64"/>
<path d="M56.0038 168.6C56.0034 168.663 55.9936 168.725 55.9749 168.782C55.9563 168.839 55.9293 168.891 55.8955 168.933C55.4725 169.433 55.1832 170.113 55.0736 170.864C54.9639 171.616 55.0401 172.396 55.2902 173.081C55.3211 173.183 55.3228 173.298 55.2949 173.401C55.267 173.505 55.2116 173.59 55.1399 173.64C55.0681 173.69 54.9852 173.701 54.9079 173.67C54.8306 173.639 54.7646 173.57 54.7231 173.475C54.4117 172.614 54.3154 171.636 54.4492 170.692C54.5841 169.749 54.9453 168.896 55.475 168.268C55.5397 168.193 55.6231 168.155 55.7076 168.163C55.7921 168.171 55.871 168.225 55.9274 168.312C55.9774 168.392 56.0046 168.495 56.0038 168.6Z" fill="#37474F"/>
<path d="M57.9599 169.834C57.9597 169.953 57.9253 170.066 57.8643 170.149C57.4614 170.698 57.1681 171.38 57.013 172.13C56.8579 172.879 56.8461 173.671 56.9787 174.429C56.9887 174.487 56.9904 174.546 56.9837 174.605C56.977 174.663 56.9619 174.719 56.9394 174.769C56.917 174.82 56.8875 174.863 56.8527 174.898C56.8179 174.933 56.7784 174.958 56.7366 174.972C56.6947 174.986 56.6513 174.988 56.6088 174.979C56.5663 174.969 56.5256 174.949 56.4889 174.918C56.4522 174.887 56.4203 174.846 56.395 174.799C56.3698 174.751 56.3516 174.697 56.3415 174.639C56.1847 173.733 56.1996 172.786 56.3847 171.89C56.5699 170.994 56.9191 170.177 57.3992 169.519C57.4288 169.478 57.4641 169.446 57.5029 169.423C57.5417 169.401 57.5834 169.39 57.6254 169.39C57.6675 169.39 57.7091 169.401 57.7479 169.423C57.7867 169.446 57.822 169.478 57.8516 169.519C57.8847 169.558 57.9114 169.607 57.9301 169.661C57.9487 169.715 57.9589 169.774 57.9599 169.834Z" fill="#37474F"/>
<path d="M59.6866 171.777C59.6869 171.843 59.6761 171.908 59.6551 171.967C59.6341 172.027 59.6035 172.078 59.5656 172.119C59.2059 172.524 58.9293 173.051 58.7628 173.648C58.5964 174.245 58.5459 174.891 58.6162 175.523C58.6292 175.638 58.6093 175.755 58.5605 175.85C58.5117 175.944 58.438 176.009 58.355 176.031C58.2715 176.049 58.1862 176.021 58.1172 175.954C58.0482 175.887 58.0009 175.786 57.9854 175.672C57.8947 174.884 57.9565 174.077 58.1645 173.332C58.3725 172.587 58.7194 171.93 59.1705 171.427C59.2365 171.356 59.3205 171.323 59.404 171.336C59.4876 171.349 59.564 171.407 59.6165 171.497C59.6629 171.577 59.6877 171.676 59.6866 171.777Z" fill="#37474F"/>
<path d="M61.1075 173.659C61.1066 173.72 61.0965 173.781 61.0779 173.836C61.0592 173.892 61.0325 173.942 60.9992 173.983C60.6926 174.371 60.4571 174.853 60.3121 175.39C60.167 175.927 60.1164 176.503 60.1645 177.072C60.1753 177.187 60.1526 177.303 60.1012 177.395C60.0499 177.487 59.9741 177.547 59.8905 177.562C59.849 177.571 59.8066 177.568 59.7659 177.553C59.7253 177.539 59.6872 177.514 59.6538 177.478C59.6205 177.443 59.5927 177.399 59.5721 177.349C59.5514 177.299 59.5384 177.243 59.5337 177.186C59.4719 176.477 59.5338 175.758 59.7144 175.088C59.895 174.419 60.1891 173.818 60.5723 173.335C60.6019 173.294 60.6371 173.262 60.6759 173.239C60.7148 173.217 60.7564 173.206 60.7985 173.206C60.8405 173.206 60.8822 173.217 60.921 173.239C60.9598 173.262 60.995 173.294 61.0247 173.335C61.0803 173.425 61.1098 173.541 61.1075 173.659Z" fill="#37474F"/>
<path d="M20.1827 125.444C19.7048 134.739 21.5144 145.574 22.0942 148.777L21.0939 152.068C20.8454 160.513 29.9058 165.126 34.06 161.835C40.5718 147.534 43.8723 139.78 42.5916 130.783L20.1827 125.444Z" fill="#263238"/>
<path opacity="0.3" d="M22.6358 147.342L26.6435 136.384C23.2921 135.01 20.7371 129.523 20.7371 129.523C21.2532 134.188 24.4899 137.146 24.4899 137.146C23.0673 140.169 22.4152 143.755 22.6358 147.342Z" fill="black"/>
<path d="M34.2002 158.719C33.3464 153.468 27.5419 147.753 22.5912 149.582L17.9654 163.629C17.187 165.996 16.7169 168.531 16.5764 171.121L14.735 205.035C14.6091 207.408 14.2972 209.755 13.8048 212.036L13.7474 212.299L20.1827 214.662C20.208 210.744 20.7431 206.864 21.7629 203.206L26.6818 185.579C27.6344 182.147 28.0679 178.484 27.9561 174.814L27.8796 172.04L34.2002 158.719Z" fill="#FFA8A7"/>
<path d="M10.1284 229.54C11.9724 229.461 13.7211 228.396 15.0026 226.573C15.9393 225.225 16.5637 223.528 17.5513 222.259C18.7045 220.771 19.9788 220.158 21.2786 218.898C21.4991 218.676 21.6692 218.372 21.7693 218.023C21.779 217.895 21.779 217.766 21.7693 217.638C21.7445 217.192 21.6557 216.758 21.508 216.36C21.4469 216.87 21.2407 217.327 20.9346 217.629C19.6603 218.898 18.1374 219.791 17.0097 221.278C16.0412 222.547 15.4295 224.254 14.5184 225.593C13.2786 227.41 11.5645 228.477 9.75244 228.56C7.9684 228.63 4.8718 227.737 4.8718 225.934C4.77175 226.5 4.83813 227.098 5.05657 227.597C6.16523 229.12 8.79033 229.54 10.1284 229.54Z" fill="#EBEBEB"/>
<path d="M21.2786 218.863C20.0043 220.123 18.73 220.736 17.5513 222.224C16.5637 223.493 15.9392 225.19 15.0026 226.538C13.721 228.361 11.9724 229.426 10.1284 229.505C8.79032 229.558 6.18433 229.12 5.06931 227.624C5.90398 229.531 8.8604 230.057 10.294 229.995C12.1053 229.916 13.8195 228.852 15.06 227.037C15.9711 225.689 16.5828 223.991 17.5513 222.714C18.679 221.235 19.9215 220.622 21.1958 219.353C21.3539 219.197 21.4865 218.997 21.5852 218.766C21.684 218.536 21.7466 218.28 21.7692 218.014C21.6662 218.354 21.4963 218.648 21.2786 218.863Z" fill="#455A64"/>
<path d="M20.9728 212.815C20.8325 212.385 20.7818 211.909 20.8263 211.441C20.8263 211.441 20.9218 210.05 20.9856 209.603C21.1066 208.728 20.616 208.684 20.616 208.684C20.616 208.684 20.5204 209.376 20.4376 210.19C20.3006 210.31 20.1823 210.466 20.0894 210.649C19.9964 210.833 19.9307 211.039 19.896 211.257C19.8334 211.696 19.7373 212.124 19.6093 212.535C19.5424 212.739 19.4327 212.912 19.2943 213.03C19.1559 213.149 18.9949 213.208 18.8319 213.2C18.4815 213.13 18.2649 212.64 17.9718 212.325C17.7965 212.179 17.5971 212.095 17.3921 212.083C17.1872 212.071 16.9833 212.13 16.7994 212.255C16.8894 211.976 16.9049 211.663 16.8431 211.37C16.7813 211.077 16.6463 210.823 16.4617 210.653C16.0773 210.321 15.6402 210.119 15.1874 210.067C14.8837 209.981 14.5729 209.952 14.2635 209.98C14.1093 209.993 13.9589 210.051 13.8218 210.149C13.6847 210.247 13.5639 210.383 13.4671 210.548C13.3709 210.715 13.3186 210.922 13.3186 211.135C13.3186 211.348 13.3709 211.554 13.4671 211.721C12.1354 212.841 11.632 217.961 9.12801 220.526C6.62397 223.09 4.8463 223.659 4.8463 225.926C4.8463 227.676 7.94289 228.551 9.72694 228.551C11.539 228.469 13.2531 227.401 14.4929 225.584C15.404 224.245 16.0157 222.539 16.9842 221.27C18.112 219.782 19.6348 218.889 20.9091 217.62C21.1049 217.417 21.2618 217.152 21.3662 216.847C21.4705 216.542 21.5192 216.206 21.508 215.87C21.4639 214.816 21.2827 213.781 20.9728 212.815Z" fill="#004AAD"/>
<path d="M5.31145 225.26L6.4647 225.838C6.54193 225.876 6.60986 225.942 6.66061 226.031C6.71135 226.119 6.74284 226.225 6.75142 226.337C6.89797 228.087 7.08911 228.639 7.6753 229.391C6.96201 229.287 6.27333 228.973 5.65551 228.472C5.28313 228.177 5.00872 227.694 4.88991 227.126C4.7711 226.558 4.81714 225.949 5.01835 225.427C5.04447 225.355 5.08848 225.299 5.14232 225.269C5.19615 225.238 5.2562 225.235 5.31145 225.26Z" fill="#455A64"/>
<path d="M16.0476 214.189C16.0012 214.189 15.9554 214.175 15.9136 214.148C15.8717 214.121 15.8348 214.081 15.8054 214.032C15.4387 213.454 14.944 213.057 14.3973 212.903C13.8481 212.753 13.2781 212.861 12.7789 213.209C12.7029 213.261 12.6148 213.27 12.5342 213.233C12.4535 213.196 12.3869 213.117 12.3488 213.012C12.3108 212.908 12.3046 212.787 12.3315 212.676C12.3583 212.565 12.4162 212.474 12.4922 212.421C13.122 211.98 13.8416 211.843 14.5352 212.032C15.2287 212.221 15.8557 212.725 16.3152 213.463C16.3695 213.55 16.3966 213.663 16.3906 213.778C16.3847 213.893 16.3461 214 16.2833 214.075C16.2516 214.115 16.2144 214.146 16.1739 214.165C16.1334 214.185 16.0904 214.193 16.0476 214.189Z" fill="#37474F"/>
<path d="M15.1428 216.867C15.0567 216.867 14.9742 216.82 14.9134 216.736C14.515 216.183 14.0195 215.781 13.4749 215.568C12.9302 215.355 12.3548 215.338 11.8041 215.52C11.7631 215.534 11.7204 215.537 11.6785 215.528C11.6367 215.52 11.5965 215.5 11.5603 215.47C11.5241 215.439 11.4927 215.4 11.4678 215.353C11.4429 215.306 11.4251 215.252 11.4154 215.196C11.405 215.141 11.4026 215.083 11.4085 215.027C11.4144 214.97 11.4285 214.916 11.4498 214.867C11.4712 214.818 11.4994 214.776 11.5329 214.742C11.5664 214.708 11.6044 214.684 11.6448 214.671C12.3046 214.453 12.9941 214.473 13.6468 214.727C14.2996 214.982 14.8937 215.463 15.3722 216.123C15.4162 216.185 15.446 216.263 15.4577 216.348C15.4694 216.433 15.4625 216.521 15.438 216.6C15.4135 216.68 15.3724 216.748 15.3198 216.795C15.2673 216.843 15.2057 216.868 15.1428 216.867Z" fill="#37474F"/>
<path d="M13.7538 219.204C13.7051 219.203 13.6571 219.188 13.6131 219.159C13.5691 219.131 13.5302 219.089 13.4989 219.038C13.2048 218.542 12.8213 218.159 12.3866 217.929C11.9519 217.699 11.481 217.629 11.0204 217.725C10.9359 217.744 10.8495 217.715 10.7802 217.646C10.7109 217.577 10.6643 217.474 10.6508 217.357C10.6373 217.241 10.6579 217.123 10.7081 217.028C10.7583 216.932 10.8339 216.868 10.9184 216.85C11.4912 216.726 12.0777 216.811 12.619 217.097C13.1602 217.383 13.6373 217.859 14.0023 218.478C14.0412 218.542 14.066 218.62 14.0736 218.703C14.0812 218.786 14.0714 218.87 14.0452 218.946C14.0191 219.021 13.9777 219.085 13.9261 219.129C13.8745 219.173 13.8147 219.196 13.7538 219.195V219.204Z" fill="#37474F"/>
<path d="M12.3648 221.191C12.32 221.191 12.2756 221.178 12.2349 221.152C12.1941 221.127 12.158 221.089 12.1291 221.042C11.8446 220.622 11.4921 220.301 11.1003 220.103C10.7084 219.905 10.2881 219.837 9.87351 219.904C9.78953 219.914 9.70587 219.88 9.63958 219.809C9.57328 219.737 9.52934 219.634 9.5167 219.519C9.51136 219.462 9.51441 219.403 9.52566 219.347C9.53691 219.291 9.55614 219.239 9.58222 219.194C9.60831 219.148 9.64074 219.11 9.67762 219.082C9.7145 219.053 9.75509 219.036 9.79705 219.029C10.3132 218.945 10.8365 219.03 11.324 219.278C11.8114 219.526 12.2489 219.93 12.6006 220.456C12.6401 220.52 12.6657 220.597 12.6745 220.68C12.6833 220.763 12.675 220.848 12.6504 220.925C12.6258 221.001 12.5859 221.067 12.5354 221.114C12.4849 221.161 12.4258 221.188 12.3648 221.191Z" fill="#37474F"/>
<path d="M37.0675 82.6211C33.5799 82.2448 30.0773 82.2097 26.5862 82.516C25.0189 82.548 23.4762 83.0561 22.0687 84.0039C21.172 84.7896 20.3989 85.8138 19.7949 87.0163C19.1909 88.2187 18.7681 89.5751 18.5516 91.0054C18.1363 93.8648 18.0034 96.788 18.1566 99.6961C18.3413 109.201 18.8574 117.314 19.6029 126.766C26.4779 132.218 35.5319 134.8 43.1778 131.807C43.2861 119.554 42.8465 106.593 41.0497 94.585C40.4125 90.244 39.4887 85.553 37.0675 82.6211Z" fill="#455A64"/>
<path opacity="0.3" d="M37.0675 82.6211C33.5799 82.2448 30.0773 82.2097 26.5862 82.516C25.0189 82.548 23.4762 83.0561 22.0687 84.0039C21.172 84.7896 20.3989 85.8138 19.7949 87.0163C19.1909 88.2187 18.7681 89.5751 18.5516 91.0054C18.1363 93.8648 18.0034 96.788 18.1566 99.6961C18.3413 109.201 18.8574 117.314 19.6029 126.766C26.4779 132.218 35.5319 134.8 43.1778 131.807C43.2861 119.554 42.8465 106.593 41.0497 94.585C40.4125 90.244 39.4887 85.553 37.0675 82.6211Z" fill="white"/>
<path d="M57.8452 107.013C57.9323 105.718 57.7847 104.414 57.4156 103.217C57.0465 102.019 56.4674 100.966 55.7299 100.151L43.0504 86.0868C41.3331 84.1756 39.2606 82.9629 37.0675 82.5861L35.825 82.4548C34.6909 83.8989 34.1939 94.1824 39.3039 98.3571L50.3268 107.197L50.2184 126.652L46.4465 132.569C46.3783 132.671 46.3289 132.795 46.3025 132.929C46.2761 133.064 46.2733 133.205 46.2945 133.341C46.3157 133.477 46.3602 133.604 46.4243 133.712C46.4884 133.819 46.5702 133.904 46.6631 133.96C46.8801 134.1 47.1213 134.152 47.3591 134.112C47.5969 134.072 47.8217 133.94 48.0075 133.733L49.2308 132.358C48.4726 134.319 47.81 136.551 47.0518 138.485C46.8628 138.865 46.7689 139.32 46.7842 139.78C46.8097 139.974 46.8664 140.158 46.9501 140.319C47.0339 140.479 47.1426 140.612 47.2684 140.708C47.5169 140.902 47.7928 141.022 48.0776 141.058C49.0737 141.218 50.0821 140.972 50.9766 140.349C51.8687 139.727 52.6564 138.857 53.2895 137.793C54.5006 135.79 55.2267 133.318 55.3667 130.722C56.5055 122.886 57.3329 114.972 57.8452 107.013Z" fill="#FFA8A7"/>
<path d="M24.3051 78.9015V80.4768C24.276 81.6309 24.1214 82.7726 23.8464 83.8638C23.7313 84.3232 23.7313 84.8222 23.8464 85.2816C23.9644 85.6677 24.1442 86.0122 24.3726 86.2895C24.601 86.5668 24.8719 86.7697 25.1653 86.8832C25.7477 87.0977 26.3582 87.1246 26.9494 86.962C28.7174 86.5479 30.3232 85.2933 31.4859 83.4175L31.2247 72.6438L24.3051 78.9015Z" fill="#FFA8A7"/>
<path opacity="0.2" d="M29.8357 77.3261C30.3969 75.9787 30.7564 74.491 30.8934 72.9501L24.3052 78.8927V80.4681C24.2989 80.9288 24.267 81.3881 24.2096 81.8421C25.1386 81.6208 26.0439 81.2415 26.9048 80.7131C28.1014 80.001 29.1202 78.8237 29.8357 77.3261Z" fill="black"/>
<path d="M16.9969 61.4238C16.2443 61.4573 15.4994 61.2066 14.8433 60.6989C14.1872 60.1912 13.6451 59.446 13.2759 58.5444C13.2237 58.4121 13.2008 58.2617 13.2101 58.1118C13.2194 57.9618 13.2605 57.8189 13.3282 57.7007C13.396 57.5825 13.4875 57.4941 13.5915 57.4465C13.6954 57.3989 13.8072 57.3942 13.9131 57.4329C14.4336 57.5598 14.9663 57.5598 15.4869 57.4329C14.8864 56.3595 14.4476 55.1327 14.196 53.8239C13.9444 52.5151 13.885 51.1506 14.0214 49.81C14.0382 49.6609 14.0803 49.5193 14.1442 49.3967C14.2082 49.2741 14.2922 49.1738 14.3896 49.1039C14.4869 49.0341 14.5948 48.9967 14.7046 48.9946C14.8145 48.9926 14.9231 49.0261 15.0217 49.0923C17.182 50.5639 19.5856 51.2309 21.9923 51.0265C23.2666 50.904 24.5409 50.5276 25.8152 50.3964C27.0972 50.178 28.3982 50.4506 29.5745 51.184C30.1656 51.557 30.6715 52.1445 31.0375 52.8833C31.4036 53.622 31.6159 54.484 31.6516 55.3762C31.7979 55.0905 31.9876 54.8518 32.2076 54.6765C32.4276 54.5012 32.6727 54.3936 32.9259 54.361C33.1903 54.3171 33.4584 54.348 33.7137 54.4518C33.969 54.5557 34.2062 54.7303 34.4105 54.9649L32.2059 56.6452C32.6193 56.5319 33.0484 56.6096 33.4264 56.866C33.8044 57.1224 34.11 57.5433 34.2958 58.0631C34.6197 59.0816 34.7596 60.1925 34.7036 61.3013C34.7452 62.7628 34.6983 64.2265 34.5634 65.6773C34.4189 67.1442 33.9995 68.5344 33.3464 69.7119C32.7722 70.6746 32.0061 71.3863 31.1419 71.7599C29.9646 72.2116 28.7148 72.1566 27.561 71.6023C26.4156 71.0535 25.3258 70.3065 24.3179 69.3794C21.7052 67.0413 19.2546 64.3783 16.9969 61.4238Z" fill="#263238"/>
<path d="M16.8568 58.4919C16.1185 64.5835 16.6076 70.8364 18.2713 76.5734C18.5743 77.9489 19.2048 79.1447 20.0617 79.9692C21.0047 80.7131 22.177 80.5556 23.2475 80.3368C24.9934 80.066 26.6956 79.4068 28.2874 78.3851C29.8924 77.3465 31.1433 75.4966 31.779 73.2214C32.3491 73.3811 32.9406 73.3107 33.4822 73.0187C34.0237 72.7267 34.4922 72.2257 34.831 71.5761C35.5033 70.2277 35.8509 68.6239 35.825 66.9901C35.825 65.9573 35.6848 64.732 35.0094 64.2769C34.6775 64.1376 34.3241 64.1251 33.9874 64.2408C33.6506 64.3564 33.3431 64.5958 33.0979 64.9333C32.191 65.9354 31.5249 67.2895 31.1865 68.8192C30.6895 66.2899 29.9122 63.8481 29.4152 61.3275C29.3032 60.3024 28.9226 59.3687 28.3447 58.7019C27.5738 58.0193 26.5671 58.4131 25.675 58.7019C22.7707 59.6659 19.7351 59.5935 16.8568 58.4919Z" fill="#FFA8A7"/>
<path d="M22.2152 66.1586L20.068 71.1385L22.6294 71.7949L22.2152 66.1586Z" fill="#F28F8F"/>
<path d="M25.1016 73.5103L23.1519 74.8143C23.3189 75.1184 23.5537 75.3394 23.8205 75.4436C24.0873 75.5479 24.3715 75.5297 24.6301 75.3919C24.8552 75.2019 25.0253 74.9103 25.1113 74.5671C25.1973 74.2239 25.1939 73.8504 25.1016 73.5103Z" fill="#F28F8F"/>
<path opacity="0.3" d="M25.1016 73.5103L23.1519 74.8143C23.3189 75.1184 23.5537 75.3394 23.8205 75.4436C24.0873 75.5479 24.3715 75.5297 24.6301 75.3919C24.8552 75.2019 25.0253 74.9103 25.1113 74.5671C25.1973 74.2239 25.1939 73.8504 25.1016 73.5103Z" fill="black"/>
<path d="M23.9547 75.5057C24.1813 75.5666 24.4158 75.5362 24.6301 75.4182C24.8086 75.2803 24.9535 75.0729 25.0465 74.8222C25.1394 74.5715 25.1763 74.2886 25.1526 74.0091C24.8743 74.0052 24.6038 74.1353 24.388 74.3767C24.2649 74.5161 24.1633 74.6877 24.0889 74.8815C24.0145 75.0753 23.9689 75.2875 23.9547 75.5057Z" fill="#F28F8F"/>
<path d="M25.9172 66.3599C25.9369 66.5606 25.9124 66.7647 25.8469 66.9461C25.7815 67.1275 25.6781 67.2779 25.5499 67.3779C25.4218 67.478 25.2748 67.5231 25.1278 67.5075C24.9809 67.492 24.8407 67.4164 24.7252 67.2906C24.6098 67.1647 24.5244 66.9943 24.4799 66.8012C24.4355 66.6082 24.4341 66.4013 24.476 66.2072C24.5178 66.0131 24.6009 65.8405 24.7147 65.7118C24.8285 65.5831 24.9676 65.504 25.1144 65.4847C25.3052 65.4551 25.4969 65.5306 25.6473 65.6946C25.7978 65.8587 25.8948 66.0979 25.9172 66.3599Z" fill="#263238"/>
<path d="M19.7558 66.885C19.7747 67.0233 19.7725 67.1654 19.7493 67.3024C19.7261 67.4394 19.6824 67.5682 19.621 67.6808C19.5596 67.7934 19.4819 67.8872 19.3927 67.9564C19.3035 68.0255 19.2048 68.0684 19.103 68.0824C19.0011 68.0964 18.8982 68.0812 18.8008 68.0377C18.7034 67.9942 18.6137 67.9233 18.5373 67.8297C18.4609 67.736 18.3995 67.6216 18.357 67.4936C18.3145 67.3657 18.2918 67.227 18.2904 67.0863C18.2878 66.8322 18.3547 66.5859 18.478 66.3962C18.6012 66.2066 18.7717 66.0873 18.9559 66.062C19.14 66.0367 19.3244 66.1073 19.4725 66.2596C19.6206 66.412 19.7217 66.6352 19.7558 66.885Z" fill="#263238"/>
<path d="M18.7491 62.9816L17.2327 64.732C17.1423 64.4644 17.1134 64.1652 17.1498 63.8744C17.1863 63.5836 17.2863 63.315 17.4366 63.1042C17.6248 62.9161 17.8478 62.8048 18.08 62.7831C18.3122 62.7615 18.5441 62.8303 18.7491 62.9816Z" fill="#263238"/>
<path d="M25.0124 61.9839L26.7519 63.3055C26.8025 63.02 26.7881 62.72 26.7106 62.4461C26.6331 62.1722 26.4963 61.9376 26.3186 61.7739C26.1076 61.6425 25.8744 61.5926 25.6443 61.6296C25.4141 61.6666 25.1957 61.7891 25.0124 61.9839Z" fill="#263238"/>
<path d="M25.4966 121.086C25.4966 120.841 25.4966 120.605 25.452 120.368C25.2379 118.35 24.6039 116.459 23.6261 114.923C22.6484 113.388 21.3686 112.273 19.9406 111.713L10.4597 103.836L4.0881 99.4598L1.46299 102.304C0.872143 102.935 0.42906 103.79 0.188675 104.764C-0.120046 106.063 -0.0478181 107.476 0.390004 108.703C0.827825 109.931 1.59675 110.875 2.53343 111.336L17.8252 118.74C18.8252 120.177 19.46 122.019 19.6348 123.992C19.6751 124.571 19.7584 125.142 19.8833 125.698C20.0975 126.358 20.4616 126.905 20.9211 127.257C21.3805 127.609 21.9106 127.747 22.4319 127.65C22.948 127.542 23.4386 127.269 23.8645 126.854C24.2904 126.44 24.6398 125.894 24.885 125.261C25.3768 123.979 25.5892 122.529 25.4966 121.086Z" fill="#FFA8A7"/>
<path d="M20.3866 111.713V110.444H19.7112V110.907L18.2712 109.752C18.1213 109.632 17.9509 109.569 17.7774 109.569C17.604 109.569 17.4336 109.632 17.2836 109.752L14.8815 111.66V111.109L14.2444 111.187V112.439C14.2449 112.517 14.2605 112.594 14.2896 112.662C14.3187 112.73 14.3602 112.786 14.4101 112.824L16.3852 114.399C16.536 114.516 16.7061 114.577 16.879 114.577C17.052 114.577 17.2221 114.516 17.3728 114.399L20.2719 112.098C20.3196 112.061 20.3594 112.008 20.3873 111.943C20.4153 111.879 20.4304 111.805 20.4312 111.73L20.3866 111.713Z" fill="#004AAD"/>
<path d="M17.2582 108.711L14.8051 110.662C14.7611 110.694 14.7243 110.742 14.6986 110.801C14.6729 110.859 14.6593 110.927 14.6593 110.995C14.6593 111.063 14.6729 111.13 14.6986 111.189C14.7243 111.248 14.7611 111.295 14.8051 111.327L16.4872 112.658C16.6146 112.761 16.7598 112.815 16.9077 112.815C17.0556 112.815 17.2008 112.761 17.3282 112.658L19.7877 110.706C19.83 110.672 19.8651 110.624 19.8895 110.565C19.9139 110.507 19.9267 110.441 19.9267 110.374C19.9267 110.306 19.9139 110.24 19.8895 110.182C19.8651 110.123 19.83 110.075 19.7877 110.041L18.0992 108.711C17.9718 108.608 17.8266 108.553 17.6787 108.553C17.5308 108.553 17.3856 108.608 17.2582 108.711Z" fill="#004AAD"/>
<path opacity="0.3" d="M20.3866 111.713V110.444H19.7112V110.907L18.2712 109.752C18.1213 109.632 17.9509 109.569 17.7774 109.569C17.604 109.569 17.4336 109.632 17.2836 109.752L14.8815 111.66V111.109L14.2444 111.187V112.439C14.2449 112.517 14.2605 112.594 14.2896 112.662C14.3187 112.73 14.3602 112.786 14.4101 112.824L16.3852 114.399C16.536 114.516 16.7061 114.577 16.879 114.577C17.052 114.577 17.2221 114.516 17.3728 114.399L20.2719 112.098C20.3196 112.061 20.3594 112.008 20.3873 111.943C20.4153 111.879 20.4304 111.805 20.4312 111.73L20.3866 111.713Z" fill="black"/>
<path d="M17.2518 108.501L14.3655 110.794C14.3151 110.832 14.2731 110.889 14.2439 110.957C14.2147 111.026 14.1993 111.104 14.1993 111.183C14.1993 111.262 14.2147 111.34 14.2439 111.409C14.2731 111.477 14.3151 111.534 14.3655 111.573L16.3598 113.139C16.5105 113.256 16.6806 113.317 16.8536 113.317C17.0265 113.317 17.1966 113.256 17.3474 113.139L20.2464 110.837C20.2952 110.797 20.3356 110.74 20.3636 110.671C20.3916 110.603 20.4064 110.526 20.4064 110.448C20.4064 110.37 20.3916 110.293 20.3636 110.224C20.3356 110.156 20.2952 110.099 20.2464 110.058L18.2712 108.501C18.1176 108.372 17.9413 108.304 17.7615 108.304C17.5817 108.304 17.4054 108.372 17.2518 108.501Z" fill="#004AAD"/>
<path opacity="0.5" d="M17.2582 108.711L14.8051 110.662C14.7611 110.694 14.7243 110.742 14.6986 110.801C14.6729 110.859 14.6593 110.927 14.6593 110.995C14.6593 111.063 14.6729 111.13 14.6986 111.189C14.7243 111.248 14.7611 111.295 14.8051 111.327L16.4872 112.658C16.6146 112.761 16.7598 112.815 16.9077 112.815C17.0556 112.815 17.2008 112.761 17.3282 112.658L19.7877 110.706C19.83 110.672 19.8651 110.624 19.8895 110.565C19.9139 110.507 19.9267 110.441 19.9267 110.374C19.9267 110.306 19.9139 110.24 19.8895 110.182C19.8651 110.123 19.83 110.075 19.7877 110.041L18.0992 108.711C17.9718 108.608 17.8266 108.553 17.6787 108.553C17.5308 108.553 17.3856 108.608 17.2582 108.711Z" fill="white"/>
<path d="M16.1686 117.918C15.78 117.419 15.5697 114.697 16.3407 113.813L14.3655 112.246C13.7283 113.358 13.8876 115.747 14.2444 116.955C14.2864 117.093 14.3497 117.217 14.43 117.318C14.5103 117.42 14.6057 117.496 14.7095 117.541C15.0918 117.716 15.7354 118.023 15.9839 118.137C16.0599 118.174 16.141 118.188 16.2214 118.177C16.3018 118.167 16.3795 118.132 16.449 118.075L16.1686 117.918Z" fill="#455A64"/>
</svg>
