<svg xmlns="http://www.w3.org/2000/svg" xmlns:xlink="http://www.w3.org/1999/xlink" width="50" zoomAndPan="magnify" viewBox="0 0 37.5 37.499999" height="50" preserveAspectRatio="xMidYMid meet" version="1.0"><defs><clipPath id="aa5609e86f"><path d="M 19.109375 10.953125 L 21.570312 10.953125 L 21.570312 13.347656 L 19.109375 13.347656 Z M 19.109375 10.953125 " clip-rule="nonzero"/></clipPath><clipPath id="20b4a6a7c2"><path d="M 21.542969 12.144531 C 21.542969 12.804688 21.007812 13.335938 20.351562 13.335938 C 19.695312 13.335938 19.160156 12.804688 19.160156 12.144531 C 19.160156 11.488281 19.695312 10.953125 20.351562 10.953125 C 21.011719 10.953125 21.542969 11.488281 21.542969 12.144531 " clip-rule="nonzero"/></clipPath><clipPath id="9f5d3adadd"><path d="M 17.28125 8.683594 L 17.40625 8.683594 L 17.40625 8.9375 L 17.28125 8.9375 Z M 17.28125 8.683594 " clip-rule="nonzero"/></clipPath><clipPath id="d01d78a97e"><path d="M 17.304688 8.902344 L 17.40625 8.6875 " clip-rule="nonzero"/></clipPath><clipPath id="10adcd9fdb"><path d="M 18.101562 6.667969 L 18.542969 6.667969 L 18.542969 7.359375 L 18.101562 7.359375 Z M 18.101562 6.667969 " clip-rule="nonzero"/></clipPath><clipPath id="e330a4a6c7"><path d="M 18.484375 6.707031 L 18.292969 7.007812 C 18.234375 7.113281 18.171875 7.214844 18.113281 7.316406 L 18.292969 7.007812 C 18.355469 6.910156 18.417969 6.808594 18.484375 6.710938 " clip-rule="nonzero"/></clipPath><clipPath id="5f7c8edae5"><path d="M 17.722656 11.773438 L 17.847656 11.773438 L 17.847656 11.835938 L 17.722656 11.835938 Z M 17.722656 11.773438 " clip-rule="nonzero"/></clipPath><clipPath id="cd79ff811f"><path d="M 17.792969 11.820312 L 17.78125 11.78125 L 17.773438 11.800781 Z M 17.792969 11.820312 " clip-rule="nonzero"/></clipPath><clipPath id="2b34fb665a"><path d="M 18.480469 6.351562 L 18.730469 6.351562 L 18.730469 6.730469 L 18.480469 6.730469 Z M 18.480469 6.351562 " clip-rule="nonzero"/></clipPath><clipPath id="dc76c7641c"><path d="M 18.679688 6.410156 L 18.484375 6.707031 L 18.613281 6.507812 " clip-rule="nonzero"/></clipPath><clipPath id="d4a61bb9e8"><path d="M 17.910156 12.78125 L 28.441406 12.78125 L 28.441406 25.515625 L 17.910156 25.515625 Z M 17.910156 12.78125 " clip-rule="nonzero"/></clipPath><clipPath id="157ef2263b"><path d="M 20.804688 20.511719 C 19.785156 19.136719 19.0625 17.574219 18.660156 15.960938 L 18.738281 16.007812 C 18.925781 16.117188 19.074219 16.195312 19.226562 16.273438 C 20.121094 16.71875 21.078125 16.988281 22.027344 17.097656 C 23.140625 17.226562 24.25 17.144531 25.296875 16.882812 C 24.21875 16.914062 23.15625 16.757812 22.175781 16.421875 C 21.199219 16.085938 20.304688 15.566406 19.589844 14.902344 C 19.296875 14.628906 19.03125 14.328125 18.796875 14.007812 L 18.285156 13.179688 C 18.230469 13.066406 18.175781 12.949219 18.125 12.835938 C 18.035156 13.75 17.976562 14.628906 17.960938 15.476562 L 17.96875 17.230469 C 17.992188 17.980469 18.050781 18.734375 18.136719 19.480469 C 18.621094 20.175781 19.164062 20.828125 19.757812 21.421875 C 22.113281 23.777344 25.226562 25.214844 28.382812 25.511719 C 25.304688 24.757812 22.589844 22.921875 20.804688 20.511719 " clip-rule="nonzero"/></clipPath><clipPath id="e1989c7f02"><path d="M 15.578125 6.351562 L 19.929688 6.351562 L 19.929688 27.785156 L 15.578125 27.785156 Z M 15.578125 6.351562 " clip-rule="nonzero"/></clipPath><clipPath id="84d57e2131"><path d="M 19.632812 27.113281 L 19.378906 26.464844 C 19.300781 26.242188 19.21875 26.027344 19.136719 25.8125 L 18.914062 25.164062 C 18.628906 24.292969 18.386719 23.425781 18.1875 22.550781 C 17.96875 21.589844 17.804688 20.625 17.6875 19.652344 L 17.585938 18.628906 C 17.546875 18.167969 17.519531 17.710938 17.503906 17.25 L 17.503906 15.101562 C 17.539062 14.164062 17.609375 13.226562 17.714844 12.289062 L 17.761719 11.878906 C 17.765625 11.859375 17.765625 11.84375 17.769531 11.824219 L 17.773438 11.78125 C 17.882812 10.902344 18.015625 10.039062 18.167969 9.171875 L 18.289062 8.488281 C 18.332031 8.257812 18.378906 8.03125 18.417969 7.800781 L 18.550781 7.113281 C 18.574219 6.996094 18.597656 6.878906 18.617188 6.765625 L 18.679688 6.410156 L 18.546875 6.609375 C 18.417969 6.808594 18.355469 6.910156 18.292969 7.007812 L 18.113281 7.316406 C 18.054688 7.417969 17.992188 7.519531 17.9375 7.625 L 17.609375 8.257812 C 17.503906 8.46875 17.40625 8.6875 17.304688 8.902344 L 16.863281 9.984375 C 16.664062 10.511719 16.492188 11.050781 16.339844 11.59375 L 16.265625 11.863281 C 16.226562 12.015625 16.1875 12.171875 16.152344 12.328125 L 15.964844 13.210938 C 15.90625 13.527344 15.855469 13.847656 15.8125 14.171875 L 15.679688 15.492188 C 15.640625 16.097656 15.632812 16.703125 15.652344 17.3125 C 15.714844 19.246094 16.089844 21.179688 16.796875 22.980469 C 17.148438 23.878906 17.578125 24.746094 18.09375 25.554688 L 18.496094 26.152344 C 18.640625 26.34375 18.78125 26.535156 18.929688 26.722656 L 19.394531 27.265625 C 19.558594 27.4375 19.722656 27.609375 19.898438 27.773438 L 19.632812 27.117188 " clip-rule="nonzero"/></clipPath><clipPath id="43a362f27f"><path d="M 13.941406 20.601562 L 15.328125 20.601562 L 15.328125 22 L 13.941406 22 Z M 13.941406 20.601562 " clip-rule="nonzero"/></clipPath><clipPath id="b9028c7126"><path d="M 15.28125 21.269531 C 15.25 20.902344 14.925781 20.628906 14.558594 20.660156 C 14.191406 20.691406 13.917969 21.011719 13.949219 21.378906 C 13.980469 21.75 14.304688 22.019531 14.671875 21.992188 C 15.039062 21.960938 15.3125 21.636719 15.28125 21.269531 " clip-rule="nonzero"/></clipPath><clipPath id="e99ee3cabd"><path d="M 14.757812 23.375 L 15.894531 23.375 L 15.894531 24.507812 L 14.757812 24.507812 Z M 14.757812 23.375 " clip-rule="nonzero"/></clipPath><clipPath id="d8b2b780b1"><path d="M 15.835938 23.902344 C 15.8125 23.617188 15.5625 23.40625 15.277344 23.433594 C 14.996094 23.457031 14.785156 23.707031 14.808594 23.988281 C 14.832031 24.273438 15.082031 24.484375 15.363281 24.460938 C 15.648438 24.4375 15.859375 24.1875 15.835938 23.902344 " clip-rule="nonzero"/></clipPath><clipPath id="4d1a2dc741"><path d="M 13.6875 18.265625 L 14.757812 18.265625 L 14.757812 19.339844 L 13.6875 19.339844 Z M 13.6875 18.265625 " clip-rule="nonzero"/></clipPath><clipPath id="898c4ccc43"><path d="M 14.753906 18.742188 C 14.730469 18.460938 14.480469 18.25 14.199219 18.273438 C 13.914062 18.296875 13.703125 18.546875 13.726562 18.832031 C 13.75 19.113281 14 19.324219 14.28125 19.300781 C 14.566406 19.277344 14.777344 19.027344 14.753906 18.746094 " clip-rule="nonzero"/></clipPath><clipPath id="067c86ea16"><path d="M 16.210938 26.148438 L 16.964844 26.148438 L 16.964844 26.90625 L 16.210938 26.90625 Z M 16.210938 26.148438 " clip-rule="nonzero"/></clipPath><clipPath id="4a60519838"><path d="M 16.921875 26.496094 C 16.90625 26.300781 16.734375 26.15625 16.539062 26.171875 C 16.347656 26.191406 16.203125 26.359375 16.21875 26.554688 C 16.230469 26.75 16.40625 26.894531 16.597656 26.878906 C 16.792969 26.859375 16.9375 26.6875 16.921875 26.496094 " clip-rule="nonzero"/></clipPath><clipPath id="491c779007"><path d="M 14.003906 10.890625 L 15.390625 10.890625 L 15.390625 12.277344 L 14.003906 12.277344 Z M 14.003906 10.890625 " clip-rule="nonzero"/></clipPath><clipPath id="f5a450b614"><path d="M 15.363281 11.53125 C 15.332031 11.164062 15.007812 10.890625 14.640625 10.921875 C 14.273438 10.953125 14 11.277344 14.03125 11.644531 C 14.0625 12.011719 14.386719 12.285156 14.75 12.253906 C 15.117188 12.222656 15.390625 11.898438 15.363281 11.535156 " clip-rule="nonzero"/></clipPath><clipPath id="1045059998"><path d="M 13.5625 13.601562 L 14.695312 13.601562 L 14.695312 14.671875 L 13.5625 14.671875 Z M 13.5625 13.601562 " clip-rule="nonzero"/></clipPath><clipPath id="86f88609f1"><path d="M 14.652344 14.097656 C 14.628906 13.8125 14.378906 13.601562 14.09375 13.625 C 13.8125 13.652344 13.601562 13.902344 13.625 14.183594 C 13.648438 14.46875 13.898438 14.679688 14.179688 14.65625 C 14.464844 14.632812 14.675781 14.382812 14.652344 14.097656 " clip-rule="nonzero"/></clipPath><clipPath id="259525daa4"><path d="M 15.136719 8.746094 L 16.273438 8.746094 L 16.273438 9.820312 L 15.136719 9.820312 Z M 15.136719 8.746094 " clip-rule="nonzero"/></clipPath><clipPath id="bf4eb368d2"><path d="M 16.230469 9.242188 C 16.207031 8.957031 15.957031 8.746094 15.671875 8.769531 C 15.390625 8.796875 15.175781 9.042969 15.199219 9.328125 C 15.222656 9.609375 15.476562 9.824219 15.757812 9.800781 C 16.042969 9.777344 16.253906 9.523438 16.226562 9.242188 " clip-rule="nonzero"/></clipPath><clipPath id="53eedd5fa0"><path d="M 13.625 16 L 14.382812 16 L 14.382812 16.753906 L 13.625 16.753906 Z M 13.625 16 " clip-rule="nonzero"/></clipPath><clipPath id="e7a296a4c9"><path d="M 14.335938 16.324219 C 14.320312 16.128906 14.148438 15.984375 13.953125 16 C 13.757812 16.015625 13.617188 16.1875 13.632812 16.382812 C 13.648438 16.574219 13.820312 16.71875 14.011719 16.703125 C 14.207031 16.6875 14.351562 16.515625 14.335938 16.324219 " clip-rule="nonzero"/></clipPath><clipPath id="fe0382ccd0"><path d="M 16.652344 6.792969 L 17.40625 6.792969 L 17.40625 7.550781 L 16.652344 7.550781 Z M 16.652344 6.792969 " clip-rule="nonzero"/></clipPath><clipPath id="5835a7aa59"><path d="M 17.378906 7.148438 C 17.363281 6.953125 17.191406 6.808594 17 6.828125 C 16.804688 6.84375 16.660156 7.011719 16.675781 7.207031 C 16.691406 7.402344 16.863281 7.546875 17.058594 7.53125 C 17.253906 7.515625 17.394531 7.34375 17.382812 7.148438 " clip-rule="nonzero"/></clipPath><clipPath id="67cbd76d55"><path d="M 9 19.734375 L 30 19.734375 L 30 32 L 9 32 Z M 9 19.734375 " clip-rule="nonzero"/></clipPath><clipPath id="eed8378292"><path d="M 4.679688 26 L 11 26 L 11 33 L 4.679688 33 Z M 4.679688 26 " clip-rule="nonzero"/></clipPath><clipPath id="a42af3d8bd"><path d="M 9 20 L 32.0625 20 L 32.0625 33.054688 L 9 33.054688 Z M 9 20 " clip-rule="nonzero"/></clipPath></defs><g clip-path="url(#aa5609e86f)"><g clip-path="url(#20b4a6a7c2)"><path fill="#00bf63" d="M 12.929688 5.722656 L 29.070312 5.722656 L 29.070312 28.480469 L 12.929688 28.480469 Z M 12.929688 5.722656 " fill-opacity="1" fill-rule="nonzero"/></g></g><g clip-path="url(#9f5d3adadd)"><g clip-path="url(#d01d78a97e)"><path fill="#00bf63" d="M 12.929688 5.722656 L 29.070312 5.722656 L 29.070312 28.480469 L 12.929688 28.480469 Z M 12.929688 5.722656 " fill-opacity="1" fill-rule="nonzero"/></g></g><g clip-path="url(#10adcd9fdb)"><g clip-path="url(#e330a4a6c7)"><path fill="#00bf63" d="M 12.929688 5.722656 L 29.070312 5.722656 L 29.070312 28.480469 L 12.929688 28.480469 Z M 12.929688 5.722656 " fill-opacity="1" fill-rule="nonzero"/></g></g><g clip-path="url(#5f7c8edae5)"><g clip-path="url(#cd79ff811f)"><path fill="#00bf63" d="M 12.929688 5.722656 L 29.070312 5.722656 L 29.070312 28.480469 L 12.929688 28.480469 Z M 12.929688 5.722656 " fill-opacity="1" fill-rule="nonzero"/></g></g><g clip-path="url(#2b34fb665a)"><g clip-path="url(#dc76c7641c)"><path fill="#00bf63" d="M 12.929688 5.722656 L 29.070312 5.722656 L 29.070312 28.480469 L 12.929688 28.480469 Z M 12.929688 5.722656 " fill-opacity="1" fill-rule="nonzero"/></g></g><g clip-path="url(#d4a61bb9e8)"><g clip-path="url(#157ef2263b)"><path fill="#004aad" d="M 12.929688 5.722656 L 29.070312 5.722656 L 29.070312 28.480469 L 12.929688 28.480469 Z M 12.929688 5.722656 " fill-opacity="1" fill-rule="nonzero"/></g></g><g clip-path="url(#e1989c7f02)"><g clip-path="url(#84d57e2131)"><path fill="#00bf63" d="M 12.929688 5.722656 L 29.070312 5.722656 L 29.070312 28.480469 L 12.929688 28.480469 Z M 12.929688 5.722656 " fill-opacity="1" fill-rule="nonzero"/></g></g><g clip-path="url(#43a362f27f)"><g clip-path="url(#b9028c7126)"><path fill="#00bf63" d="M 12.929688 5.722656 L 29.070312 5.722656 L 29.070312 28.480469 L 12.929688 28.480469 Z M 12.929688 5.722656 " fill-opacity="1" fill-rule="nonzero"/></g></g><g clip-path="url(#e99ee3cabd)"><g clip-path="url(#d8b2b780b1)"><path fill="#00bf63" d="M 12.929688 5.722656 L 29.070312 5.722656 L 29.070312 28.480469 L 12.929688 28.480469 Z M 12.929688 5.722656 " fill-opacity="1" fill-rule="nonzero"/></g></g><g clip-path="url(#4d1a2dc741)"><g clip-path="url(#898c4ccc43)"><path fill="#00bf63" d="M 12.929688 5.722656 L 29.070312 5.722656 L 29.070312 28.480469 L 12.929688 28.480469 Z M 12.929688 5.722656 " fill-opacity="1" fill-rule="nonzero"/></g></g><g clip-path="url(#067c86ea16)"><g clip-path="url(#4a60519838)"><path fill="#00bf63" d="M 12.929688 5.722656 L 29.070312 5.722656 L 29.070312 28.480469 L 12.929688 28.480469 Z M 12.929688 5.722656 " fill-opacity="1" fill-rule="nonzero"/></g></g><g clip-path="url(#491c779007)"><g clip-path="url(#f5a450b614)"><path fill="#00bf63" d="M 12.929688 5.722656 L 29.070312 5.722656 L 29.070312 28.480469 L 12.929688 28.480469 Z M 12.929688 5.722656 " fill-opacity="1" fill-rule="nonzero"/></g></g><g clip-path="url(#1045059998)"><g clip-path="url(#86f88609f1)"><path fill="#00bf63" d="M 12.929688 5.722656 L 29.070312 5.722656 L 29.070312 28.480469 L 12.929688 28.480469 Z M 12.929688 5.722656 " fill-opacity="1" fill-rule="nonzero"/></g></g><g clip-path="url(#259525daa4)"><g clip-path="url(#bf4eb368d2)"><path fill="#00bf63" d="M 12.929688 5.722656 L 29.070312 5.722656 L 29.070312 28.480469 L 12.929688 28.480469 Z M 12.929688 5.722656 " fill-opacity="1" fill-rule="nonzero"/></g></g><g clip-path="url(#53eedd5fa0)"><g clip-path="url(#e7a296a4c9)"><path fill="#00bf63" d="M 12.929688 5.722656 L 29.070312 5.722656 L 29.070312 28.480469 L 12.929688 28.480469 Z M 12.929688 5.722656 " fill-opacity="1" fill-rule="nonzero"/></g></g><g clip-path="url(#fe0382ccd0)"><g clip-path="url(#5835a7aa59)"><path fill="#ffffff" d="M 12.929688 5.722656 L 29.070312 5.722656 L 29.070312 28.480469 L 12.929688 28.480469 Z M 12.929688 5.722656 " fill-opacity="1" fill-rule="nonzero"/></g></g><path fill="#00bf63" d="M 22.792969 5.4375 L 14.25 5.4375 L 14.25 6 L 22.792969 6 Z M 14.101562 5.140625 L 23.085938 5.140625 L 23.085938 6.296875 L 13.957031 6.296875 L 13.957031 5.140625 L 14.101562 5.140625 " fill-opacity="1" fill-rule="nonzero"/><path fill="#00bf63" d="M 13.304688 3.25 L 14.210938 3.25 L 14.210938 8.1875 L 13.15625 8.1875 L 13.15625 3.25 Z M 13.917969 3.542969 L 13.453125 3.542969 L 13.453125 7.894531 L 13.917969 7.894531 L 13.917969 3.542969 " fill-opacity="1" fill-rule="nonzero"/><path fill="#00bf63" d="M 13.226562 7.574219 L 12.523438 7.574219 L 12.523438 3.863281 L 13.226562 3.863281 L 13.226562 4.160156 L 12.816406 4.160156 L 12.816406 7.277344 L 13.226562 7.277344 L 13.226562 7.574219 " fill-opacity="1" fill-rule="nonzero"/><path fill="#00bf63" d="M 12.550781 7.1875 L 11.96875 7.1875 L 11.96875 4.25 L 12.550781 4.25 L 12.550781 4.542969 L 12.265625 4.542969 L 12.265625 6.894531 L 12.550781 6.894531 L 12.550781 7.1875 " fill-opacity="1" fill-rule="nonzero"/><path fill="#00bf63" d="M 12.117188 5.292969 L 11.730469 5.292969 L 11.730469 6.144531 L 12.117188 6.144531 L 12.117188 6.441406 L 11.4375 6.441406 L 11.4375 4.996094 L 12.117188 4.996094 L 12.117188 5.292969 " fill-opacity="1" fill-rule="nonzero"/><path fill="#00bf63" d="M 23.550781 3.542969 L 23.085938 3.542969 L 23.085938 7.894531 L 23.550781 7.894531 Z M 22.941406 3.25 L 23.847656 3.25 L 23.847656 8.1875 L 22.792969 8.1875 L 22.792969 3.25 L 22.941406 3.25 " fill-opacity="1" fill-rule="nonzero"/><path fill="#00bf63" d="M 23.777344 7.277344 L 24.1875 7.277344 L 24.1875 4.160156 L 23.777344 4.160156 L 23.777344 3.863281 L 24.480469 3.863281 L 24.480469 7.574219 L 23.777344 7.574219 L 23.777344 7.277344 " fill-opacity="1" fill-rule="nonzero"/><path fill="#00bf63" d="M 24.457031 6.894531 L 24.738281 6.894531 L 24.738281 4.542969 L 24.457031 4.542969 L 24.457031 4.25 L 25.035156 4.25 L 25.035156 7.1875 L 24.457031 7.1875 L 24.457031 6.894531 " fill-opacity="1" fill-rule="nonzero"/><path fill="#00bf63" d="M 24.886719 4.996094 L 25.566406 4.996094 L 25.566406 6.441406 L 24.886719 6.441406 L 24.886719 6.144531 L 25.269531 6.144531 L 25.269531 5.292969 L 24.886719 5.292969 L 24.886719 4.996094 " fill-opacity="1" fill-rule="nonzero"/><g clip-path="url(#67cbd76d55)"><path fill="#004aad" d="M 9.28125 29.3125 C 11.519531 30.316406 13.984375 30.910156 16.152344 31.132812 C 19.195312 31.445312 22.449219 31.179688 25.125 30.046875 C 27.078125 29.21875 28.988281 27.78125 29.429688 25.660156 C 29.492188 25.367188 29.523438 25.0625 29.523438 24.757812 C 29.523438 22.804688 28.332031 21.101562 26.738281 19.75 C 27.664062 20.910156 28.269531 22.246094 28.269531 23.699219 C 28.269531 24.039062 28.234375 24.375 28.167969 24.703125 C 27.695312 26.96875 25.722656 28.503906 23.628906 29.394531 C 20.925781 30.539062 17.652344 30.816406 14.578125 30.496094 C 12.859375 30.316406 11.035156 29.929688 9.28125 29.3125 " fill-opacity="1" fill-rule="evenodd"/></g><g clip-path="url(#eed8378292)"><path fill="#004aad" d="M 6.007812 26.71875 L 6.03125 26.707031 L 6.050781 26.695312 C 7.433594 29.199219 7.953125 29.152344 10.296875 27.859375 L 10.320312 27.898438 C 7.972656 29.195312 7.65625 29.605469 9.039062 32.113281 L 8.996094 32.136719 C 7.613281 29.632812 7.09375 29.679688 4.75 30.972656 L 4.726562 30.929688 C 7.070312 29.636719 7.390625 29.226562 6.007812 26.71875 " fill-opacity="1" fill-rule="evenodd"/></g><g clip-path="url(#a42af3d8bd)"><path fill="#004aad" d="M 9.515625 30.59375 C 11.976562 31.789062 14.699219 32.527344 17.109375 32.847656 C 20.488281 33.300781 24.121094 33.109375 27.140625 31.9375 C 29.34375 31.078125 31.519531 29.539062 32.082031 27.191406 C 32.160156 26.867188 32.203125 26.53125 32.214844 26.191406 C 32.277344 24.019531 31.007812 22.082031 29.28125 20.523438 C 30.273438 21.84375 30.902344 23.351562 30.851562 24.96875 C 30.84375 25.347656 30.792969 25.722656 30.707031 26.085938 C 30.109375 28.589844 27.859375 30.238281 25.496094 31.160156 C 22.445312 32.34375 18.792969 32.546875 15.378906 32.089844 C 13.46875 31.832031 11.445312 31.34375 9.515625 30.59375 " fill-opacity="1" fill-rule="evenodd"/></g></svg>