<svg width="333" height="390" viewBox="0 0 333 390" fill="none" xmlns="http://www.w3.org/2000/svg">
<path d="M210.984 270.052C224.386 270.052 235.251 258.988 235.251 245.341C235.251 231.694 224.386 220.631 210.984 220.631C197.582 220.631 186.717 231.694 186.717 245.341C186.717 258.988 197.582 270.052 210.984 270.052Z" fill="white"/>
<path d="M210.984 270.356C206.125 270.357 201.375 268.892 197.334 266.144C193.293 263.396 190.143 259.49 188.283 254.919C186.422 250.349 185.935 245.319 186.882 240.466C187.829 235.613 190.168 231.155 193.603 227.656C197.038 224.157 201.415 221.774 206.181 220.808C210.946 219.842 215.886 220.337 220.375 222.23C224.865 224.123 228.702 227.329 231.401 231.443C234.101 235.557 235.542 240.393 235.542 245.341C235.536 251.972 232.947 258.33 228.343 263.02C223.739 267.709 217.496 270.348 210.984 270.356ZM210.984 220.943C206.243 220.943 201.609 222.374 197.667 225.057C193.725 227.739 190.653 231.551 188.839 236.011C187.026 240.471 186.551 245.379 187.477 250.113C188.402 254.848 190.686 259.197 194.039 262.61C197.391 266.022 201.663 268.346 206.313 269.287C210.962 270.228 215.782 269.744 220.161 267.895C224.541 266.047 228.284 262.917 230.916 258.903C233.549 254.888 234.954 250.169 234.952 245.341C234.946 238.871 232.419 232.667 227.925 228.093C223.431 223.519 217.338 220.947 210.984 220.943Z" fill="#004AAD"/>
<path d="M214.89 231.332H207.077V259.35H214.89V231.332Z" fill="#004AAD"/>
<path d="M224.741 249.327V241.371H197.227V249.327H224.741Z" fill="#004AAD"/>
<path d="M46.6003 58.5546L46.0794 57.9852C49.6253 54.5719 54.1246 52.3643 58.9558 51.6672L59.0631 52.4472C54.3876 53.1186 50.0326 55.2528 46.6003 58.5546Z" fill="#004AAD"/>
<path d="M40.9319 67.08L40.2195 66.7992C40.9927 64.8122 42.0232 62.9392 43.2835 61.23L43.8963 61.698C42.681 63.3521 41.6843 65.1616 40.9319 67.08Z" fill="#004AAD"/>
<path d="M62.3033 96.9618C73.9117 96.9618 83.3223 87.3793 83.3223 75.5586C83.3223 63.7379 73.9117 54.1554 62.3033 54.1554C50.6948 54.1554 41.2842 63.7379 41.2842 75.5586C41.2842 87.3793 50.6948 96.9618 62.3033 96.9618Z" fill="#004AAD"/>
<path d="M74.858 65.9178C74.0485 65.062 73.0795 64.3792 72.0078 63.9093C70.9361 63.4393 69.7831 63.1916 68.6162 63.1807C67.4494 63.1698 66.2922 63.3959 65.2122 63.8458C64.1321 64.2957 63.1511 64.9603 62.3262 65.8008C61.5021 64.9605 60.5217 64.2961 59.4423 63.8463C58.3629 63.3965 57.2063 63.1705 56.0401 63.1814C54.8739 63.1923 53.7215 63.4399 52.6504 63.9098C51.5793 64.3796 50.611 65.0623 49.8021 65.9178C48.217 67.6638 47.363 69.9705 47.4216 72.3475C47.4803 74.7246 48.4469 76.9846 50.1162 78.6474L60.0742 88.7874C60.373 89.0916 60.7276 89.333 61.118 89.4976C61.5083 89.6623 61.9267 89.747 62.3492 89.747C62.7717 89.747 63.1901 89.6623 63.5805 89.4976C63.9708 89.333 64.3255 89.0916 64.6242 88.7874L74.5822 78.6474C76.2462 76.9795 77.2059 74.7166 77.2574 72.3396C77.3089 69.9626 76.4481 67.6588 74.858 65.9178Z" fill="white"/>
<path d="M62.3033 84.9108C62.1489 84.9054 61.9997 84.8526 61.8753 84.7594C61.7509 84.6661 61.6571 84.5367 61.6062 84.3882L57.1711 71.1828L55.3173 76.7052C55.2647 76.8587 55.1662 76.9915 55.0357 77.0852C54.9052 77.1789 54.7493 77.2288 54.5896 77.2278H47.1671C46.9639 77.2278 46.7691 77.1456 46.6254 76.9993C46.4818 76.8531 46.4011 76.6547 46.4011 76.4478C46.4011 76.2409 46.4818 76.0425 46.6254 75.8963C46.7691 75.75 46.9639 75.6678 47.1671 75.6678H54.0611L56.4663 68.5152C56.5184 68.3619 56.6161 68.229 56.7459 68.1349C56.8756 68.0409 57.0309 67.9903 57.1902 67.9903C57.3495 67.9903 57.5048 68.0409 57.6345 68.1349C57.7643 68.229 57.862 68.3619 57.9141 68.5152L62.4258 81.9546L66.8073 71.448C66.8627 71.3141 66.9537 71.1986 67.0701 71.1145C67.1865 71.0304 67.3237 70.9811 67.4661 70.9722C67.6095 70.9638 67.7524 70.9967 67.8783 71.067C68.0043 71.1373 68.1083 71.2423 68.1785 71.37L70.4918 75.66H77.4701C77.6732 75.66 77.868 75.7422 78.0117 75.8885C78.1554 76.0347 78.2361 76.2331 78.2361 76.44C78.2361 76.6469 78.1554 76.8453 78.0117 76.9915C77.868 77.1378 77.6732 77.22 77.4701 77.22H70.0475C69.9105 77.2211 69.7757 77.1848 69.6571 77.1149C69.5385 77.0449 69.4406 76.9438 69.3734 76.8222L67.558 73.515L63.008 84.435C62.9493 84.576 62.8512 84.6963 62.7259 84.7809C62.6006 84.8655 62.4536 84.9107 62.3033 84.9108Z" fill="#004AAD"/>
<path d="M178.927 297.336H98.9793C97.6766 297.351 96.3852 297.089 95.1871 296.568C93.989 296.047 92.9104 295.278 92.02 294.31C91.1295 293.342 90.4467 292.195 90.0148 290.944C89.583 289.692 89.4116 288.363 89.5116 287.04L102.434 92.04C102.66 89.2551 103.894 86.6551 105.897 84.7452C107.9 82.8352 110.529 81.7516 113.273 81.705H193.236C194.542 81.6898 195.837 81.9522 197.038 82.4756C198.239 82.9989 199.319 83.7715 200.21 84.7442C201.101 85.7168 201.783 86.8681 202.212 88.1243C202.642 89.3806 202.809 90.7142 202.703 92.04L189.758 287.04C189.525 289.817 188.288 292.408 186.287 294.31C184.287 296.212 181.664 297.29 178.927 297.336Z" fill="#263238"/>
<path d="M196.652 161.117H194.637C194.273 161.121 193.911 161.048 193.576 160.902C193.24 160.756 192.938 160.54 192.69 160.269C192.441 159.997 192.25 159.675 192.131 159.324C192.011 158.973 191.965 158.601 191.995 158.231L194.469 120.955C194.526 120.175 194.869 119.446 195.43 118.911C195.99 118.377 196.727 118.076 197.495 118.069H199.509C199.874 118.064 200.236 118.137 200.571 118.283C200.906 118.429 201.208 118.645 201.457 118.917C201.706 119.188 201.896 119.51 202.016 119.861C202.135 120.212 202.182 120.584 202.152 120.955L199.678 158.231C199.62 159.01 199.277 159.74 198.717 160.274C198.157 160.808 197.42 161.109 196.652 161.117Z" fill="#263238"/>
<path d="M101.27 136.25H99.2628C98.9658 136.254 98.6713 136.196 98.3978 136.078C98.1243 135.96 97.8779 135.785 97.6741 135.565C97.4703 135.345 97.3136 135.085 97.2139 134.8C97.1142 134.515 97.0737 134.212 97.095 133.91L97.9912 120.448C98.0478 119.816 98.3316 119.227 98.7883 118.795C99.245 118.363 99.8422 118.118 100.465 118.108H102.48C102.776 118.106 103.069 118.166 103.341 118.285C103.613 118.404 103.858 118.579 104.061 118.798C104.264 119.018 104.42 119.278 104.519 119.561C104.619 119.845 104.66 120.147 104.64 120.448L103.744 133.91C103.689 134.543 103.406 135.133 102.949 135.565C102.492 135.997 101.893 136.241 101.27 136.25Z" fill="#004AAD"/>
<path d="M99.6764 160.29H97.6618C97.3655 160.293 97.0718 160.233 96.7993 160.115C96.5267 159.996 96.2812 159.822 96.0783 159.602C95.8753 159.382 95.7193 159.122 95.6201 158.837C95.5208 158.553 95.4805 158.251 95.5017 157.95L96.3979 144.487C96.4545 143.855 96.7384 143.267 97.195 142.835C97.6517 142.403 98.249 142.158 98.8721 142.147H100.902C101.198 142.145 101.491 142.206 101.763 142.325C102.035 142.443 102.28 142.618 102.483 142.838C102.686 143.057 102.842 143.317 102.941 143.601C103.041 143.885 103.082 144.186 103.062 144.487L102.166 157.95C102.111 158.585 101.825 159.177 101.365 159.61C100.905 160.042 100.303 160.285 99.6764 160.29Z" fill="#004AAD"/>
<path d="M177.234 297.336H97.2865C95.9838 297.351 94.6923 297.089 93.4942 296.568C92.2961 296.047 91.2175 295.278 90.3271 294.31C89.4366 293.342 88.7538 292.195 88.322 290.944C87.8901 289.692 87.7187 288.363 87.8187 287.04L100.749 92.04C100.982 89.2541 102.225 86.6563 104.236 84.7519C106.246 82.8474 108.88 81.7725 111.626 81.7362H191.543C192.846 81.7214 194.138 81.983 195.337 82.5044C196.536 83.0259 197.615 83.7957 198.505 84.7649C199.396 85.7341 200.078 86.8814 200.51 88.134C200.941 89.3865 201.112 90.7167 201.011 92.04L188.073 287.04C187.84 289.819 186.602 292.41 184.599 294.312C182.597 296.214 179.972 297.292 177.234 297.336Z" fill="#004AAD"/>
<path opacity="0.3" d="M88.6613 284.856L101.285 94.5672H200.145L187.521 284.856H88.6613Z" fill="white"/>
<path opacity="0.1" d="M127.689 284.856L162.971 94.5672H185.116L149.834 284.856H127.689Z" fill="white"/>
<path opacity="0.1" d="M110.96 284.856L146.242 94.5672H157.463L122.181 284.856H110.96Z" fill="white"/>
<path d="M141.607 86.5176H160.887C161.048 86.5148 161.208 86.5464 161.356 86.6105C161.504 86.6746 161.638 86.7696 161.747 86.8895C161.857 87.0094 161.941 87.1514 161.993 87.3063C162.046 87.4613 162.066 87.6257 162.052 87.789C162.025 88.1327 161.874 88.454 161.628 88.6904C161.381 88.9269 161.057 89.0615 160.719 89.0682H141.439C141.277 89.0699 141.118 89.0372 140.969 88.9723C140.821 88.9073 140.688 88.8116 140.578 88.6911C140.469 88.5706 140.385 88.4281 140.333 88.2728C140.28 88.1174 140.26 87.9526 140.274 87.789C140.301 87.4461 140.453 87.1257 140.699 86.8905C140.946 86.6553 141.269 86.5224 141.607 86.5176Z" fill="white"/>
<path d="M137.593 316.095L130.837 316.75L128.401 300.877L135.157 300.214L137.593 316.095Z" fill="#FFB573"/>
<path d="M130.064 313.388L137.141 311.15C137.263 311.107 137.397 311.113 137.514 311.169C137.632 311.224 137.723 311.323 137.77 311.446L140.068 317.164C140.125 317.317 140.15 317.48 140.142 317.644C140.134 317.808 140.092 317.968 140.02 318.115C139.948 318.261 139.847 318.391 139.724 318.496C139.6 318.601 139.456 318.678 139.302 318.724C136.743 319.504 134.307 319.683 131.22 321.064C127.612 322.624 126.103 324.714 122.22 324.714C119.439 324.714 118.811 322.117 119.991 321.758C125.353 320.104 124.648 318.747 128.539 314.48C128.944 313.986 129.47 313.609 130.064 313.388Z" fill="#263238"/>
<path opacity="0.2" d="M128.401 300.877L129.658 309.067L136.421 308.404L135.165 300.214L128.401 300.877Z" fill="black"/>
<path d="M133.288 100.308C124.426 99.2472 115.609 99.957 106.762 101.704C105.288 101.996 103.943 102.757 102.922 103.879C101.902 105.001 101.258 106.425 101.086 107.944C100.128 116.571 99.0329 135.907 103.307 164.752L139.524 161.632C139.593 156.398 135.939 132.553 138.957 107.812C139.08 106.938 139.031 106.048 138.811 105.195C138.591 104.341 138.206 103.541 137.678 102.842C137.149 102.142 136.489 101.558 135.735 101.123C134.981 100.687 134.149 100.41 133.288 100.308Z" fill="white"/>
<path d="M112.201 107.702L113.495 110.339C113.555 110.472 113.651 110.585 113.772 110.665C113.893 110.745 114.033 110.789 114.177 110.791L115.579 110.869C115.829 110.88 116.075 110.803 116.276 110.651L118.689 108.818L115.709 106.61L112.201 107.702Z" fill="#263238"/>
<path d="M115.624 110.113C115.114 109.872 114.535 109.825 113.993 109.98C112.852 114.075 111.603 125.83 111.473 131.04C114.935 141.313 116.069 142.35 116.069 142.35L117.823 129.987C117.823 129.987 115.854 117.343 115.624 110.113Z" fill="#263238"/>
<path d="M125.621 82.524C124.794 87.6096 124.089 96.8994 127.674 100.183C125.046 102.991 121.607 106.244 115.709 106.61C109.811 106.977 110.722 102.82 112.216 100.597C117.723 99.099 117.455 94.9182 116.375 91.0104L125.621 82.524Z" fill="#FFB573"/>
<path d="M129.175 99.7386C128.757 99.5551 128.324 99.4115 127.881 99.3096C127.772 99.2804 127.657 99.2882 127.553 99.3319C127.449 99.3755 127.363 99.4526 127.306 99.5514C126.739 100.534 125.008 104.926 115.709 106.61C117.241 107.531 119.271 110.386 120.144 111.758C122.932 110.284 130.186 105.877 129.497 100.175C129.483 100.081 129.446 99.992 129.39 99.9158C129.334 99.8396 129.26 99.7787 129.175 99.7386Z" fill="#F5F5F5"/>
<path d="M112.269 100.831C112.289 100.742 112.287 100.65 112.262 100.562C112.238 100.474 112.192 100.395 112.13 100.329C112.068 100.264 111.99 100.216 111.905 100.189C111.82 100.162 111.729 100.158 111.641 100.175C111.319 100.239 111.002 100.325 110.691 100.433C110.62 100.461 110.553 100.501 110.492 100.55C109.78 101.221 105.896 106.93 109.535 111.548C110.301 110.292 112.944 107.445 115.709 106.61C113.089 105.409 111.802 103.171 112.269 100.831Z" fill="#F5F5F5"/>
<path opacity="0.2" d="M121.852 85.9872L116.383 91.0104C116.647 91.9177 116.831 92.8469 116.934 93.7872C119.049 93.4206 121.89 90.9792 122.044 88.7172C122.147 87.803 122.082 86.8771 121.852 85.9872Z" fill="black"/>
<path d="M114.544 67.1502C109.826 69.03 109.519 72.9768 109.948 77.2902C110.377 81.6036 114.989 78.7488 116.015 76.05C117.042 73.3512 121.078 64.545 114.544 67.1502Z" fill="#263238"/>
<path d="M129.596 75.7536C128.286 82.5474 127.85 86.58 124.035 89.7078C118.283 94.3878 110.492 90.3474 109.803 83.343C109.182 77.0328 111.427 66.963 118.298 64.9974C119.796 64.5482 121.384 64.5048 122.904 64.8716C124.424 65.2385 125.823 66.0028 126.964 67.0891C128.106 68.1753 128.948 69.546 129.41 71.0656C129.872 72.5851 129.936 74.201 129.596 75.7536Z" fill="#FFB573"/>
<path d="M129.321 81.3774C123.706 81.6816 124.893 78.4368 125.912 76.5726C126.931 74.7084 124.855 71.6274 126.211 70.0284C123.79 71.0112 121.239 70.2 117.999 67.9068C115.487 66.1206 112.338 73.2576 109.274 69.6774C106.379 66.3 109.068 61.2066 116.023 60.3876C122.978 59.5686 124.242 64.5762 128.807 64.1316C133.373 63.687 131.787 67.5168 130.891 68.2968C134.721 68.5542 136.812 72.2826 129.321 81.3774Z" fill="#263238"/>
<path d="M130.01 68.7726C130.888 68.282 131.622 67.5612 132.135 66.6849C132.648 65.8086 132.922 64.8086 132.928 63.7884C134.445 66.495 134.284 69.5682 130.01 68.7726Z" fill="#263238"/>
<path d="M115.456 83.0076C116.066 83.1152 116.692 83.096 117.295 82.9512C117.897 82.8065 118.465 82.5391 118.964 82.1652C118.979 82.1506 118.991 82.1331 119 82.1136C119.008 82.0942 119.012 82.0733 119.012 82.0521C119.012 82.0309 119.008 82.01 119 81.9906C118.991 81.9711 118.979 81.9536 118.964 81.939C118.934 81.9099 118.895 81.8937 118.853 81.8937C118.812 81.8937 118.772 81.9099 118.742 81.939C118.184 82.3422 117.541 82.6078 116.864 82.7147C116.187 82.8216 115.496 82.767 114.843 82.5552C114.802 82.5446 114.758 82.5499 114.72 82.57C114.681 82.5901 114.652 82.6237 114.636 82.6644C114.624 82.7058 114.629 82.7503 114.649 82.7882C114.669 82.8262 114.703 82.8546 114.744 82.8672C114.976 82.9356 115.215 82.9826 115.456 83.0076Z" fill="#263238"/>
<path d="M130.952 83.46C129.903 84.8363 128.366 85.7383 126.67 85.9716C124.441 86.268 123.698 84.1542 124.633 82.1808C125.483 80.4024 127.697 78.1092 129.75 78.7254C131.802 79.3416 132.239 81.744 130.952 83.46Z" fill="#FFB573"/>
<path d="M128.738 231.169C129.007 210.803 131.565 162.295 131.565 162.295L103.33 164.72C103.33 164.72 108.945 214.711 112.331 235.49C115.854 257.088 126.663 307.687 126.663 307.687L138.153 306.688C138.153 306.688 133.955 246.917 128.738 231.169Z" fill="#263238"/>
<path d="M125.973 308.006L139.6 306.829L139.064 302.351L124.862 303.319L125.973 308.006Z" fill="#004AAD"/>
<path d="M119.531 76.1592C119.462 76.713 119.11 77.1342 118.765 77.0952C118.42 77.0562 118.183 76.5726 118.26 76.011C118.336 75.4494 118.681 75.036 119.026 75.075C119.37 75.114 119.608 75.6054 119.531 76.1592Z" fill="#263238"/>
<path d="M113.281 75.66C113.212 76.2216 112.859 76.635 112.515 76.596C112.17 76.557 111.932 76.0734 112.009 75.5196C112.086 74.9658 112.43 74.5446 112.775 74.5836C113.12 74.6226 113.357 75.075 113.281 75.66Z" fill="#263238"/>
<path d="M115.042 76.3152C114.12 77.7586 113.012 79.0702 111.749 80.2152C112.56 81.081 114.238 80.847 114.238 80.847L115.042 76.3152Z" fill="#ED893E"/>
<path opacity="0.4" d="M109.328 75.8004C109.213 76.6896 110.094 77.4306 111.312 77.5866C112.53 77.7426 113.656 77.064 113.763 76.1748" fill="#004AAD"/>
<path opacity="0.4" d="M116.567 76.6272C116.398 77.5086 117.248 78.3042 118.443 78.5382C119.638 78.7722 120.81 78.1482 120.971 77.2746" fill="#004AAD"/>
<path d="M118.918 78.78C118.781 78.7878 118.642 78.7878 118.505 78.78C117.916 78.7083 117.363 78.4552 116.919 78.0546C116.725 77.8861 116.574 77.6728 116.478 77.4326C116.382 77.1924 116.344 76.9323 116.368 76.674C115.979 76.5016 115.565 76.3962 115.142 76.362C114.717 76.254 114.272 76.254 113.847 76.362C113.74 77.3136 112.576 77.9688 111.274 77.805C110.685 77.7395 110.13 77.4886 109.688 77.0874C109.495 76.9181 109.345 76.7047 109.249 76.4647C109.153 76.2247 109.115 75.9649 109.136 75.7068L109.504 75.7536C109.489 75.953 109.52 76.1534 109.596 76.3379C109.672 76.5224 109.79 76.6858 109.941 76.8144C110.327 77.1602 110.808 77.3755 111.32 77.4306C112.423 77.5788 113.403 77.0562 113.503 76.2762C113.556 75.8394 114.445 75.8706 115.18 75.9642C115.916 76.0578 116.789 76.2684 116.712 76.6974C116.696 76.8969 116.727 77.0974 116.803 77.2821C116.879 77.4667 116.998 77.63 117.149 77.7582C117.539 78.0994 118.02 78.3167 118.53 78.3832C119.041 78.4498 119.559 78.3626 120.021 78.1326C120.2 78.048 120.356 77.9209 120.476 77.7621C120.596 77.6032 120.676 77.4173 120.711 77.22V77.0328L130.163 78.273L130.117 78.6474L121.017 77.454C120.951 77.6711 120.842 77.8723 120.697 78.0452C120.552 78.2182 120.375 78.3594 120.175 78.4602C119.787 78.6688 119.356 78.7786 118.918 78.78Z" fill="#263238"/>
<path d="M121.936 73.71C121.991 73.7102 122.044 73.6939 122.09 73.6632C122.164 73.6191 122.219 73.547 122.241 73.4625C122.264 73.3779 122.254 73.2876 122.212 73.2108C121.975 72.7571 121.631 72.3702 121.211 72.0845C120.792 71.7987 120.309 71.6229 119.807 71.5728C119.721 71.5685 119.636 71.5988 119.572 71.6571C119.507 71.7155 119.468 71.7972 119.462 71.8848C119.458 71.9704 119.487 72.0543 119.543 72.1185C119.599 72.1827 119.677 72.222 119.761 72.228C120.158 72.2755 120.539 72.4211 120.868 72.6522C121.198 72.8833 121.467 73.1929 121.653 73.554C121.682 73.6036 121.724 73.6444 121.774 73.6718C121.823 73.6993 121.88 73.7125 121.936 73.71Z" fill="#263238"/>
<path d="M111.258 72.8286C111.311 72.8339 111.365 72.826 111.414 72.8056C111.464 72.7853 111.507 72.753 111.542 72.7116C111.789 72.3813 112.11 72.1147 112.477 71.9332C112.844 71.7517 113.248 71.6603 113.656 71.6664C113.698 71.6707 113.741 71.6664 113.782 71.6538C113.822 71.6412 113.86 71.6205 113.893 71.593C113.926 71.5654 113.953 71.5315 113.972 71.4933C113.992 71.455 114.004 71.4131 114.008 71.37C114.014 71.328 114.011 71.2852 114 71.2444C113.989 71.2035 113.97 71.1652 113.944 71.1318C113.918 71.0984 113.887 71.0706 113.85 71.0499C113.814 71.0292 113.774 71.016 113.733 71.0112C113.218 70.9975 112.707 71.1068 112.242 71.3303C111.776 71.5538 111.369 71.8853 111.052 72.2982C110.997 72.3645 110.97 72.4501 110.977 72.5363C110.985 72.6226 111.025 72.7024 111.09 72.7584C111.14 72.795 111.198 72.819 111.258 72.8286Z" fill="#263238"/>
<path d="M152.262 227.885C146.402 197.215 145.085 173.23 139.524 161.585L112.17 164.705C112.17 164.705 128.463 210.405 136.421 229.913C144.687 250.193 161.002 284.84 161.002 284.84H174.668C174.668 284.84 161.914 241.855 152.262 227.885Z" fill="#263238"/>
<path d="M65.5587 111.782L62.602 109.879C62.122 109.564 61.5497 109.428 60.9826 109.495C60.4154 109.562 59.8886 109.827 59.492 110.245L57.4851 112.398C57.269 112.63 57.1019 112.905 56.9943 113.206C56.8867 113.507 56.8408 113.827 56.8595 114.146C56.8781 114.466 56.961 114.778 57.1028 115.063C57.2447 115.349 57.4426 115.602 57.6843 115.807L59.1167 117.055C60.3626 118.13 61.8161 118.927 63.3833 119.395L67.7112 120.697L70.5531 117.577C71.4187 114.325 65.5587 111.782 65.5587 111.782Z" fill="#FFB573"/>
<path d="M109.328 110.323C108.256 112.991 107.206 115.471 106.065 118.006C104.923 120.541 103.767 123.045 102.488 125.533C101.208 128.021 99.8449 130.494 98.2976 132.974C97.5316 134.207 96.6813 135.439 95.7162 136.679C94.6786 138.047 93.497 139.295 92.1926 140.4C91.3313 141.117 90.3809 141.715 89.366 142.178C89.0443 142.303 88.7456 142.428 88.3932 142.537L87.857 142.685C87.5872 142.753 87.3135 142.802 87.0374 142.834C86.1036 142.941 85.1585 142.872 84.2491 142.631C83.1123 142.307 82.032 141.804 81.0473 141.141C80.3098 140.672 79.6058 140.151 78.9408 139.581C76.7301 137.616 74.6924 135.457 72.8511 133.13C71.0663 130.946 69.3811 128.755 67.7648 126.516C66.1486 124.277 64.5936 122.078 63.0003 119.73L71.4723 114.161C74.1458 118.555 77.104 122.764 80.3272 126.758C81.8089 128.608 83.4412 130.327 85.2066 131.898C85.5486 132.183 85.9095 132.444 86.2867 132.678C86.5701 132.873 86.8535 132.951 86.6544 132.881C86.385 132.805 86.103 132.789 85.8271 132.834C85.7157 132.844 85.6054 132.865 85.4977 132.896H85.4364C85.3981 132.896 85.3981 132.896 85.3905 132.896C85.5647 132.781 85.731 132.653 85.8884 132.514C86.5876 131.868 87.2214 131.152 87.7804 130.377C88.4315 129.488 89.0826 128.489 89.7031 127.452C90.9713 125.295 92.127 123.072 93.1654 120.791C94.2378 118.451 95.2719 116.111 96.2294 113.677C97.1869 111.244 98.0984 108.771 98.8721 106.408L109.328 110.323Z" fill="#004AAD"/>
<g opacity="0.6">
<path d="M109.328 110.323C108.256 112.991 107.206 115.471 106.065 118.006C104.923 120.541 103.767 123.045 102.488 125.533C101.208 128.021 99.8449 130.494 98.2976 132.974C97.5316 134.207 96.6813 135.439 95.7162 136.679C94.6786 138.047 93.497 139.295 92.1926 140.4C91.3313 141.117 90.3809 141.715 89.366 142.178C89.0443 142.303 88.7456 142.428 88.3932 142.537L87.857 142.685C87.5872 142.753 87.3135 142.802 87.0374 142.834C86.1036 142.941 85.1585 142.872 84.2491 142.631C83.1123 142.307 82.032 141.804 81.0473 141.141C80.3098 140.672 79.6058 140.151 78.9408 139.581C76.7301 137.616 74.6924 135.457 72.8511 133.13C71.0663 130.946 69.3811 128.755 67.7648 126.516C66.1486 124.277 64.5936 122.078 63.0003 119.73L71.4723 114.161C74.1458 118.555 77.104 122.764 80.3272 126.758C81.8089 128.608 83.4412 130.327 85.2066 131.898C85.5486 132.183 85.9095 132.444 86.2867 132.678C86.5701 132.873 86.8535 132.951 86.6544 132.881C86.385 132.805 86.103 132.789 85.8271 132.834C85.7157 132.844 85.6054 132.865 85.4977 132.896H85.4364C85.3981 132.896 85.3981 132.896 85.3905 132.896C85.5647 132.781 85.731 132.653 85.8884 132.514C86.5876 131.868 87.2214 131.152 87.7804 130.377C88.4315 129.488 89.0826 128.489 89.7031 127.452C90.9713 125.295 92.127 123.072 93.1654 120.791C94.2378 118.451 95.2719 116.111 96.2294 113.677C97.1869 111.244 98.0984 108.771 98.8721 106.408L109.328 110.323Z" fill="white"/>
</g>
<path d="M129.382 98.3502C126.509 103.81 116.283 124.613 115.042 137.452C110.515 125.752 111.503 99.8712 111.503 99.8712C108.277 100.191 105.112 100.979 102.105 102.211C101.135 102.617 100.295 103.288 99.6774 104.149C99.0595 105.011 98.688 106.03 98.604 107.094C97.7223 120.485 98.138 133.932 99.8449 147.241C103.024 172.435 105.973 211.614 105.973 211.614C105.973 211.614 131.289 210.538 150.822 206.341C148.44 187.083 140.29 154.807 140.213 146.164C140.121 135.041 140.374 113.295 140.719 104.216C140.776 102.934 140.382 101.673 139.606 100.662C138.831 99.6505 137.726 98.955 136.49 98.7012C134.147 98.259 131.756 98.141 129.382 98.3502Z" fill="#004AAD"/>
<path opacity="0.7" d="M129.382 98.3502C126.509 103.81 116.283 124.613 115.042 137.452C110.515 125.752 111.503 99.8712 111.503 99.8712C108.277 100.191 105.112 100.979 102.105 102.211C101.135 102.617 100.295 103.288 99.6774 104.149C99.0595 105.011 98.688 106.03 98.604 107.094C97.7223 120.485 98.138 133.932 99.8449 147.241C103.024 172.435 105.973 211.614 105.973 211.614C105.973 211.614 131.289 210.538 150.822 206.341C148.44 187.083 140.29 154.807 140.213 146.164C140.121 135.041 140.374 113.287 140.719 104.208C140.791 102.965 140.431 101.736 139.7 100.737C138.97 99.7386 137.918 99.0341 136.728 98.748C134.31 98.2654 131.837 98.1315 129.382 98.3502Z" fill="white"/>
<path d="M123.415 207.433C119.018 182.731 115.533 146.484 115.249 142.124H115.64C115.923 146.484 119.416 182.684 123.805 207.386L123.415 207.433Z" fill="white"/>
<path d="M121.224 163.488H97.8763C97.4048 163.466 96.953 163.29 96.5884 162.985C96.2238 162.679 95.9662 162.262 95.8541 161.795L88.0485 124.847C87.9914 124.645 87.982 124.432 88.0213 124.226C88.0607 124.02 88.1474 123.827 88.2746 123.661C88.4017 123.496 88.5656 123.364 88.7526 123.276C88.9397 123.188 89.1447 123.146 89.3507 123.154H112.691C113.164 123.174 113.617 123.35 113.983 123.655C114.349 123.961 114.608 124.379 114.721 124.847L122.526 161.795C122.583 161.997 122.593 162.21 122.553 162.416C122.514 162.622 122.427 162.816 122.3 162.981C122.173 163.146 122.009 163.278 121.822 163.366C121.635 163.455 121.43 163.496 121.224 163.488Z" fill="white"/>
<path d="M120.496 163.8H96.7503C96.2702 163.777 95.8102 163.597 95.4389 163.286C95.0676 162.976 94.8048 162.551 94.6897 162.076L86.7463 124.504C86.6894 124.298 86.6811 124.081 86.7221 123.871C86.7631 123.661 86.8522 123.465 86.9821 123.296C87.1121 123.128 87.2792 122.994 87.4698 122.904C87.6605 122.814 87.8692 122.772 88.0791 122.78H111.825C112.305 122.803 112.765 122.983 113.136 123.293C113.508 123.604 113.771 124.028 113.886 124.504L121.821 162.076C121.88 162.282 121.89 162.498 121.85 162.708C121.81 162.918 121.721 163.115 121.592 163.283C121.463 163.452 121.296 163.586 121.105 163.676C120.915 163.766 120.706 163.808 120.496 163.8Z" fill="#004AAD"/>
<path d="M123.216 142.6L117.31 142.373C116.6 142.348 115.892 142.476 115.234 142.748L112.17 143.996C111.882 144.112 111.621 144.286 111.401 144.507C111.181 144.728 111.007 144.992 110.89 145.284C110.773 145.575 110.714 145.887 110.718 146.202C110.722 146.517 110.789 146.828 110.914 147.116L112.139 149.815C112.386 150.338 112.803 150.759 113.32 151.006C113.836 151.253 114.42 151.312 114.973 151.172L118.351 150.314C118.351 150.314 124.694 149.799 124.924 146.414L123.216 142.6Z" fill="#FFB573"/>
<path d="M139.524 101.696C140.987 104.036 142.327 106.174 143.645 108.467C144.962 110.76 146.257 113.03 147.475 115.401C148.693 117.772 149.849 120.221 150.899 122.842C151.444 124.215 151.909 125.618 152.293 127.046C152.787 128.787 153.014 130.594 152.967 132.405V132.709C152.97 132.761 152.97 132.813 152.967 132.865C152.967 133.146 152.89 133.427 152.837 133.708C152.783 133.988 152.714 134.207 152.638 134.488C152.561 134.768 152.477 134.917 152.392 135.135C152.1 135.81 151.724 136.444 151.274 137.023C150.648 137.819 149.937 138.541 149.152 139.175C147.948 140.142 146.667 141.005 145.322 141.757C142.958 143.074 140.523 144.256 138.03 145.298C135.617 146.344 133.212 147.295 130.791 148.192C128.371 149.089 125.988 149.955 123.468 150.813L120.55 140.985C122.848 140.345 125.192 139.558 127.482 138.762C129.773 137.966 132.078 137.077 134.254 136.149C136.389 135.251 138.47 134.227 140.489 133.084C141.341 132.603 142.153 132.052 142.917 131.438C143.118 131.283 143.298 131.102 143.453 130.9C143.387 130.975 143.335 131.062 143.3 131.157C143.3 131.227 143.262 131.274 143.223 131.36C143.193 131.451 143.17 131.545 143.155 131.641C143.122 131.76 143.102 131.883 143.093 132.007C143.093 132.054 143.093 132.062 143.093 132.046V131.992C143.04 131.252 142.898 130.521 142.672 129.815C142.366 128.794 142.002 127.792 141.584 126.812C140.648 124.653 139.589 122.552 138.413 120.518C137.218 118.427 135.946 116.337 134.583 114.278C133.22 112.219 131.825 110.167 130.424 108.295L139.524 101.696Z" fill="#004AAD"/>
<g opacity="0.7">
<path d="M139.524 101.696C140.987 104.036 142.327 106.174 143.645 108.467C144.962 110.76 146.257 113.03 147.475 115.401C148.693 117.772 149.849 120.221 150.899 122.842C151.444 124.215 151.909 125.618 152.293 127.046C152.787 128.787 153.014 130.594 152.967 132.405V132.709C152.97 132.761 152.97 132.813 152.967 132.865C152.967 133.146 152.89 133.427 152.837 133.708C152.783 133.988 152.714 134.207 152.638 134.488C152.561 134.768 152.477 134.917 152.392 135.135C152.1 135.81 151.724 136.444 151.274 137.023C150.648 137.819 149.937 138.541 149.152 139.175C147.948 140.142 146.667 141.005 145.322 141.757C142.958 143.074 140.523 144.256 138.03 145.298C135.617 146.344 133.212 147.295 130.791 148.192C128.371 149.089 125.988 149.955 123.468 150.813L120.55 140.985C122.848 140.345 125.192 139.558 127.482 138.762C129.773 137.966 132.078 137.077 134.254 136.149C136.389 135.251 138.47 134.227 140.489 133.084C141.341 132.603 142.153 132.052 142.917 131.438C143.118 131.283 143.298 131.102 143.453 130.9C143.387 130.975 143.335 131.062 143.3 131.157C143.3 131.227 143.262 131.274 143.223 131.36C143.193 131.451 143.17 131.545 143.155 131.641C143.122 131.76 143.102 131.883 143.093 132.007C143.093 132.054 143.093 132.062 143.093 132.046V131.992C143.04 131.252 142.898 130.521 142.672 129.815C142.366 128.794 142.002 127.792 141.584 126.812C140.648 124.653 139.589 122.552 138.413 120.518C137.218 118.427 135.946 116.337 134.583 114.278C133.22 112.219 131.825 110.167 130.424 108.295L139.524 101.696Z" fill="white"/>
</g>
<path d="M131.772 128.762C131.721 128.762 131.671 128.748 131.626 128.722C131.582 128.696 131.545 128.659 131.519 128.614C131.497 128.58 131.481 128.542 131.474 128.502C131.466 128.461 131.467 128.42 131.475 128.38C131.484 128.34 131.5 128.302 131.524 128.268C131.547 128.235 131.577 128.207 131.611 128.185L132.806 127.405C133.921 126.689 134.797 125.645 135.316 124.411C135.836 123.177 135.976 121.811 135.717 120.494L133.311 108.092C133.135 107.165 132.657 106.325 131.954 105.709C131.252 105.093 130.365 104.736 129.438 104.696C128.512 104.656 127.599 104.936 126.848 105.49C126.097 106.044 125.551 106.84 125.299 107.749L121.89 119.909C121.518 121.195 121.539 122.565 121.949 123.838C122.359 125.112 123.14 126.228 124.188 127.039L125.322 127.912C125.386 127.963 125.427 128.037 125.437 128.119C125.447 128.201 125.425 128.284 125.376 128.349C125.352 128.381 125.322 128.408 125.287 128.428C125.253 128.448 125.215 128.461 125.176 128.466C125.137 128.471 125.097 128.468 125.059 128.457C125.021 128.447 124.985 128.428 124.954 128.404L123.882 127.538C122.73 126.655 121.869 125.435 121.414 124.042C120.958 122.649 120.929 121.148 121.331 119.738L124.748 107.578C125.041 106.539 125.668 105.631 126.529 105C127.39 104.368 128.434 104.049 129.494 104.094C130.554 104.139 131.569 104.545 132.375 105.248C133.181 105.95 133.732 106.908 133.94 107.968L136.345 120.377C136.629 121.816 136.477 123.308 135.909 124.656C135.341 126.005 134.385 127.146 133.166 127.928L131.963 128.708C131.937 128.73 131.906 128.746 131.873 128.755C131.84 128.764 131.806 128.767 131.772 128.762Z" fill="#263238"/>
<path d="M133.61 108.35L125.008 107.983C124.968 107.981 124.928 107.971 124.892 107.954C124.855 107.936 124.823 107.911 124.796 107.881C124.769 107.85 124.748 107.815 124.734 107.776C124.721 107.738 124.715 107.697 124.717 107.656C124.725 107.574 124.762 107.499 124.821 107.444C124.881 107.389 124.958 107.359 125.039 107.359L133.633 107.726C133.673 107.728 133.713 107.738 133.749 107.755C133.786 107.773 133.818 107.798 133.845 107.828C133.872 107.859 133.893 107.894 133.907 107.933C133.92 107.971 133.926 108.012 133.924 108.053C133.923 108.094 133.914 108.134 133.898 108.171C133.881 108.208 133.858 108.241 133.829 108.269C133.799 108.297 133.765 108.318 133.727 108.332C133.69 108.346 133.65 108.352 133.61 108.35Z" fill="#263238"/>
<path d="M129.428 104.715C129.348 104.713 129.273 104.681 129.216 104.624C129.159 104.568 129.125 104.492 129.121 104.411C129.121 102.851 128.646 100.144 127.214 99.5514C127.174 99.5378 127.138 99.5162 127.107 99.4877C127.076 99.4593 127.051 99.4246 127.033 99.3859C127.016 99.3472 127.006 99.3053 127.005 99.2628C127.004 99.2202 127.012 99.1779 127.028 99.1384C127.043 99.0989 127.067 99.0632 127.097 99.0333C127.126 99.0034 127.162 98.9801 127.201 98.9647C127.24 98.9493 127.282 98.9422 127.323 98.9438C127.365 98.9455 127.406 98.9558 127.444 98.9742C129.566 99.8634 129.742 103.935 129.742 104.434C129.742 104.516 129.711 104.595 129.655 104.655C129.6 104.715 129.524 104.75 129.443 104.754L129.428 104.715Z" fill="#263238"/>
<path d="M103.116 115.315H103.054C102.975 115.298 102.906 115.25 102.862 115.182C102.817 115.113 102.801 115.029 102.817 114.949C103.828 109.824 108.01 101.735 111.695 99.3486C111.729 99.3273 111.766 99.3131 111.805 99.3066C111.844 99.3002 111.884 99.3018 111.923 99.3112C111.961 99.3206 111.997 99.3378 112.029 99.3616C112.061 99.3854 112.088 99.4155 112.109 99.45C112.131 99.4834 112.146 99.5212 112.154 99.5608C112.161 99.6005 112.161 99.6414 112.152 99.6808C112.143 99.7203 112.127 99.7575 112.104 99.7902C112.08 99.823 112.051 99.8505 112.017 99.8712C108.455 102.164 104.395 110.011 103.414 115.058C103.402 115.129 103.365 115.194 103.311 115.241C103.256 115.288 103.187 115.315 103.116 115.315Z" fill="#263238"/>
<path d="M105.628 116.119C105.153 117.359 104.096 118.108 103.33 117.788C102.564 117.468 102.265 116.228 102.74 114.956C103.215 113.685 104.272 112.967 105.038 113.295C105.804 113.623 106.111 114.878 105.628 116.119Z" fill="white"/>
<path d="M125.851 128.201C125.851 128.778 125.498 129.238 125.123 129.223C124.748 129.207 124.456 128.723 124.479 128.138C124.502 127.553 124.832 127.093 125.207 127.117C125.582 127.14 125.874 127.616 125.851 128.201Z" fill="white"/>
<path d="M132.454 128.482C132.454 129.059 132.109 129.519 131.726 129.503C131.343 129.488 131.067 129.004 131.09 128.419C131.113 127.834 131.435 127.382 131.856 127.397C132.277 127.413 132.477 127.92 132.454 128.482Z" fill="white"/>
<path d="M262.352 117.663L261.586 117.616C261.713 115.956 261.5 114.286 260.961 112.714C260.421 111.141 259.566 109.7 258.45 108.482C257.335 107.264 255.983 106.295 254.48 105.637C252.977 104.979 251.356 104.647 249.72 104.66V103.88C251.461 103.865 253.186 104.219 254.785 104.918C256.385 105.618 257.824 106.648 259.012 107.944C260.199 109.24 261.109 110.773 261.684 112.446C262.259 114.119 262.487 115.896 262.352 117.663Z" fill="#004AAD"/>
<path d="M262.756 120.933L262.312 127.392L263.078 127.446L263.522 120.988L262.756 120.933Z" fill="#004AAD"/>
<path d="M249.72 106.61H196.866C193.98 106.659 191.215 107.799 189.108 109.808C187.001 111.818 185.704 114.554 185.468 117.484L184.986 124.73C184.876 126.124 185.053 127.526 185.505 128.847C185.957 130.168 186.674 131.379 187.611 132.402C188.548 133.424 189.684 134.237 190.946 134.789C192.209 135.34 193.57 135.617 194.944 135.603H247.798L258.047 142.038L259.671 117.484C259.782 116.09 259.606 114.688 259.155 113.367C258.704 112.046 257.987 110.835 257.051 109.812C256.115 108.789 254.979 107.976 253.717 107.425C252.455 106.873 251.094 106.596 249.72 106.61Z" fill="#004AAD"/>
<path d="M247.039 116.992H198.084V118.802H247.039V116.992Z" fill="white"/>
<path d="M246.611 123.412H210.264V125.221H246.611V123.412Z" fill="white"/>
<path d="M170.21 145.376H224.228C225.632 145.361 227.025 145.644 228.316 146.207C229.607 146.77 230.768 147.601 231.726 148.647C232.684 149.693 233.417 150.931 233.879 152.281C234.341 153.632 234.521 155.066 234.408 156.491L233.918 163.901C233.675 166.895 232.349 169.691 230.196 171.745C228.043 173.799 225.217 174.965 222.267 175.016H168.241L156.889 181.607L158.559 156.491C158.8 153.497 160.126 150.7 162.279 148.646C164.433 146.592 167.259 145.426 170.21 145.376Z" fill="white"/>
<path opacity="0.15" d="M170.21 145.376H224.228C225.632 145.361 227.025 145.644 228.316 146.207C229.607 146.77 230.768 147.601 231.726 148.647C232.684 149.693 233.417 150.931 233.879 152.281C234.341 153.632 234.521 155.066 234.408 156.491L233.918 163.901C233.675 166.895 232.349 169.691 230.196 171.745C228.043 173.799 225.217 174.965 222.267 175.016H168.241L156.889 181.607L158.559 156.491C158.8 153.497 160.126 150.7 162.279 148.646C164.433 146.592 167.259 145.426 170.21 145.376Z" fill="#004AAD"/>
<path opacity="0.5" d="M221.486 155.992H171.42V157.849H221.486V155.992Z" fill="#004AAD"/>
<path opacity="0.5" d="M190.769 162.552H170.983V164.408H190.769V162.552Z" fill="#004AAD"/>
<path opacity="0.5" d="M208.257 162.552H195.618V164.408H208.257V162.552Z" fill="#004AAD"/>
</svg>
